<svg width="24" height="24" viewBox="0 0 24 24" fill="none" xmlns="http://www.w3.org/2000/svg">
<path fill-rule="evenodd" clip-rule="evenodd" d="M12 8.25C11.0054 8.25 10.0516 8.64509 9.34835 9.34835C8.64509 10.0516 8.25 11.0054 8.25 12C8.25 12.9946 8.64509 13.9484 9.34835 14.6517C10.0516 15.3549 11.0054 15.75 12 15.75C12.9946 15.75 13.9484 15.3549 14.6517 14.6517C15.3549 13.9484 15.75 12.9946 15.75 12C15.75 11.0054 15.3549 10.0516 14.6517 9.34835C13.9484 8.64509 12.9946 8.25 12 8.25ZM9.75 12C9.75 11.4033 9.98705 10.831 10.409 10.409C10.831 9.98705 11.4033 9.75 12 9.75C12.5967 9.75 13.169 9.98705 13.591 10.409C14.0129 10.831 14.25 11.4033 14.25 12C14.25 12.5967 14.0129 13.169 13.591 13.591C13.169 14.0129 12.5967 14.25 12 14.25C11.4033 14.25 10.831 14.0129 10.409 13.591C9.98705 13.169 9.75 12.5967 9.75 12Z" fill="#006ADA"/>
<path fill-rule="evenodd" clip-rule="evenodd" d="M11.9738 1.25C11.5288 1.25 11.1578 1.25 10.8538 1.27C10.543 1.28252 10.2365 1.34673 9.9468 1.46C9.61305 1.59809 9.30977 1.80057 9.05429 2.05589C8.7988 2.3112 8.59611 2.61434 8.4578 2.948C8.3128 3.298 8.2738 3.668 8.2578 4.07C8.25601 4.21698 8.21701 4.36112 8.14444 4.48895C8.07187 4.61678 7.96809 4.72414 7.8428 4.801C7.71362 4.87132 7.56873 4.90775 7.42165 4.90687C7.27458 4.906 7.13013 4.86785 7.0018 4.796C6.6458 4.608 6.3058 4.457 5.9298 4.407C5.57174 4.3599 5.20792 4.38379 4.85909 4.4773C4.51027 4.57081 4.18328 4.73212 3.8968 4.952C3.65419 5.14648 3.44567 5.38001 3.2798 5.643C3.1098 5.897 2.9238 6.218 2.7018 6.603L2.6768 6.647C2.4538 7.032 2.2688 7.353 2.1348 7.627C1.9948 7.913 1.8848 8.195 1.8448 8.507C1.7494 9.22999 1.94508 9.96127 2.3888 10.54C2.6198 10.841 2.9208 11.06 3.2608 11.274C3.38743 11.3491 3.49294 11.4551 3.56745 11.582C3.64195 11.709 3.68302 11.8528 3.6868 12C3.68302 12.1472 3.64195 12.291 3.56745 12.418C3.49294 12.5449 3.38743 12.6509 3.2608 12.726C2.9208 12.94 2.6208 13.159 2.3888 13.46C2.16891 13.7465 2.00761 14.0735 1.9141 14.4223C1.82059 14.7711 1.7967 15.1349 1.8438 15.493C1.8848 15.805 1.9938 16.087 2.1338 16.373C2.2688 16.647 2.4538 16.968 2.6768 17.353L2.7018 17.397C2.9238 17.782 3.1098 18.103 3.2798 18.357C3.4568 18.62 3.6468 18.857 3.8968 19.047C4.18321 19.2671 4.51016 19.4285 4.85899 19.5222C5.20781 19.6159 5.57168 19.64 5.9298 19.593C6.3058 19.543 6.6458 19.393 7.0018 19.204C7.13001 19.1323 7.27427 19.0943 7.42115 19.0934C7.56804 19.0925 7.71275 19.1289 7.8418 19.199C7.96811 19.2749 8.0728 19.382 8.14582 19.51C8.21884 19.638 8.25775 19.7826 8.2588 19.93C8.2738 20.332 8.3128 20.702 8.4588 21.052C8.59689 21.3857 8.79937 21.689 9.05469 21.9445C9.31 22.2 9.61314 22.4027 9.9468 22.541C10.2368 22.661 10.5368 22.708 10.8538 22.729C11.1578 22.75 11.5288 22.75 11.9738 22.75H12.0238C12.4688 22.75 12.8398 22.75 13.1438 22.73C13.4618 22.708 13.7608 22.661 14.0508 22.54C14.3845 22.4019 14.6878 22.1994 14.9433 21.9441C15.1988 21.6888 15.4015 21.3857 15.5398 21.052C15.6848 20.702 15.7238 20.332 15.7398 19.93C15.7414 19.7828 15.7803 19.6385 15.8529 19.5105C15.9255 19.3825 16.0294 19.275 16.1548 19.198C16.2841 19.1278 16.429 19.0916 16.5761 19.0926C16.7231 19.0937 16.8676 19.132 16.9958 19.204C17.3518 19.392 17.6918 19.543 18.0678 19.592C18.7908 19.6874 19.5221 19.4917 20.1008 19.048C20.3508 18.856 20.5408 18.62 20.7178 18.357C20.8878 18.103 21.0738 17.782 21.2958 17.397L21.3208 17.353C21.5438 16.968 21.7288 16.647 21.8628 16.373C22.0028 16.087 22.1128 15.804 22.1528 15.493C22.2482 14.77 22.0525 14.0387 21.6088 13.46C21.3778 13.159 21.0768 12.94 20.7368 12.726C20.6102 12.6509 20.5047 12.5449 20.4302 12.418C20.3556 12.291 20.3146 12.1472 20.3108 12C20.3108 11.722 20.4628 11.446 20.7368 11.274C21.0768 11.06 21.3768 10.841 21.6088 10.54C21.8287 10.2535 21.99 9.92653 22.0835 9.5777C22.177 9.22888 22.2009 8.86506 22.1538 8.507C22.1067 8.1996 22.0087 7.90219 21.8638 7.627C21.693 7.29478 21.5119 6.96795 21.3208 6.647L21.2958 6.603C21.1131 6.27708 20.9204 5.95692 20.7178 5.643C20.5518 5.38036 20.3433 5.14718 20.1008 4.953C19.8144 4.73294 19.4874 4.57146 19.1386 4.47778C18.7898 4.38409 18.4259 4.36004 18.0678 4.407C17.6918 4.457 17.3518 4.607 16.9958 4.796C16.8676 4.86767 16.7233 4.90572 16.5764 4.9066C16.4296 4.90747 16.2849 4.87114 16.1558 4.801C16.0301 4.72438 15.926 4.61712 15.853 4.48928C15.7801 4.36143 15.7408 4.21717 15.7388 4.07C15.7238 3.668 15.6848 3.298 15.5388 2.948C15.4007 2.61425 15.1982 2.31097 14.9429 2.05549C14.6876 1.8 14.3845 1.59731 14.0508 1.459C13.7608 1.339 13.4608 1.292 13.1438 1.271C12.8398 1.25 12.4688 1.25 12.0238 1.25H11.9738ZM10.5208 2.845C10.5978 2.813 10.7148 2.784 10.9558 2.767C11.2028 2.75 11.5228 2.75 11.9988 2.75C12.4748 2.75 12.7948 2.75 13.0418 2.767C13.2828 2.784 13.3998 2.813 13.4768 2.845C13.7838 2.972 14.0268 3.215 14.1538 3.522C14.1938 3.618 14.2268 3.769 14.2398 4.126C14.2698 4.918 14.6788 5.681 15.4048 6.1C16.1308 6.519 16.9958 6.492 17.6968 6.122C18.0128 5.955 18.1598 5.908 18.2638 5.895C18.5924 5.85158 18.9247 5.94043 19.1878 6.142C19.2538 6.193 19.3378 6.28 19.4728 6.48C19.6118 6.686 19.7718 6.963 20.0098 7.375C20.2478 7.787 20.4068 8.065 20.5158 8.287C20.6228 8.504 20.6558 8.62 20.6658 8.703C20.7092 9.03157 20.6204 9.36392 20.4188 9.627C20.3548 9.71 20.2408 9.814 19.9388 10.004C19.2668 10.426 18.8108 11.162 18.8108 12C18.8108 12.838 19.2668 13.574 19.9388 13.996C20.2408 14.186 20.3548 14.29 20.4188 14.373C20.6208 14.636 20.7088 14.968 20.6658 15.297C20.6558 15.38 20.6218 15.497 20.5158 15.713C20.4068 15.936 20.2478 16.213 20.0098 16.625C19.7718 17.037 19.6108 17.314 19.4728 17.52C19.3378 17.72 19.2538 17.807 19.1878 17.858C18.9247 18.0596 18.5924 18.1484 18.2638 18.105C18.1598 18.092 18.0138 18.045 17.6968 17.878C16.9968 17.508 16.1308 17.48 15.4048 17.899C14.6788 18.318 14.2698 19.082 14.2398 19.874C14.2268 20.231 14.1938 20.382 14.1538 20.478C14.091 20.6298 13.9988 20.7677 13.8827 20.8839C13.7665 21.0001 13.6286 21.0922 13.4768 21.155C13.3998 21.187 13.2828 21.216 13.0418 21.233C12.7948 21.25 12.4748 21.25 11.9988 21.25C11.5228 21.25 11.2028 21.25 10.9558 21.233C10.7148 21.216 10.5978 21.187 10.5208 21.155C10.369 21.0922 10.2311 21.0001 10.1149 20.8839C9.99875 20.7677 9.90662 20.6298 9.8438 20.478C9.8038 20.382 9.7708 20.231 9.7578 19.874C9.7278 19.082 9.3188 18.319 8.5928 17.9C7.8668 17.481 7.0018 17.508 6.3008 17.878C5.9848 18.045 5.8378 18.092 5.7338 18.105C5.40523 18.1484 5.07287 18.0596 4.8098 17.858C4.7438 17.807 4.6598 17.72 4.5248 17.52C4.33668 17.2272 4.1576 16.9288 3.9878 16.625C3.7498 16.213 3.5908 15.935 3.4818 15.713C3.3748 15.496 3.3418 15.38 3.3318 15.297C3.28838 14.9684 3.37723 14.6361 3.5788 14.373C3.6428 14.29 3.7568 14.186 4.0588 13.996C4.7308 13.574 5.1868 12.838 5.1868 12C5.1868 11.162 4.7308 10.426 4.0588 10.004C3.7568 9.814 3.6428 9.71 3.5788 9.627C3.37723 9.36392 3.28838 9.03157 3.3318 8.703C3.3418 8.62 3.3758 8.503 3.4818 8.287C3.5908 8.064 3.7498 7.787 3.9878 7.375C4.2258 6.963 4.3868 6.686 4.5248 6.48C4.6598 6.28 4.7438 6.193 4.8098 6.142C5.07287 5.94043 5.40523 5.85158 5.7338 5.895C5.8378 5.908 5.9838 5.955 6.3008 6.122C7.0008 6.492 7.8668 6.52 8.5928 6.1C9.3188 5.681 9.7278 4.918 9.7578 4.126C9.7708 3.769 9.8038 3.618 9.8438 3.522C9.9708 3.215 10.2138 2.972 10.5208 2.845Z" fill="#006ADA"/>
</svg>
