<svg width="20" height="20" viewBox="0 0 20 20" fill="none" xmlns="http://www.w3.org/2000/svg">
<path d="M16.8621 4.01807C14.9713 2.12732 11.8901 2.12732 9.99935 4.01807L2.71644 11.231C1.31588 12.6315 1.31588 14.9424 2.71644 16.343C4.117 17.7436 6.35789 17.7436 7.75845 16.343L13.6408 10.4607C14.5512 9.62031 14.6212 8.14973 13.7809 7.16933C12.9405 6.18894 11.4699 6.18894 10.4895 7.02928C10.4195 7.09931 10.4195 7.09931 10.3495 7.16933L6.70803 10.8108C6.42792 11.0909 6.42792 11.5111 6.70803 11.7912C6.98814 12.0713 7.40831 12.0713 7.68842 11.7912L11.3299 8.14973C11.68 7.79959 12.2402 7.79959 12.5904 8.14973C12.9405 8.49987 12.9405 9.06009 12.5904 9.41023L6.70803 15.2926C5.8677 16.1329 4.46714 16.1329 3.6268 15.2926C2.78646 14.4522 2.78646 13.0517 3.6268 12.2114L10.9797 4.99847C12.3103 3.66793 14.5512 3.66793 15.8817 4.99847C17.2122 6.329 17.2122 8.56989 15.8817 9.90043L10.4195 15.3626C10.1394 15.6427 10.1394 16.0629 10.4195 16.343C10.6996 16.6231 11.1198 16.6231 11.3999 16.343L16.8621 10.8808C18.8229 8.99006 18.8229 5.90883 16.8621 4.01807Z" fill="#697D95"/>
</svg>
