<svg width="1920" height="1136" viewBox="0 0 1920 1136" fill="none" xmlns="http://www.w3.org/2000/svg">
<g opacity="0.6">
<path d="M-764.634 147V36.4545H-737.915V80.8239H-694.355V36.4545H-667.69V147H-694.355V102.577H-737.915V147H-764.634ZM-627.018 147H-655.734L-618.436 36.4545H-582.865L-545.567 147H-574.283L-600.246 64.3068H-601.109L-627.018 147ZM-630.851 103.494H-570.828V123.79H-630.851V103.494ZM-533.665 147V36.4545H-488C-479.723 36.4545 -472.58 38.0739 -466.571 41.3125C-460.526 44.5151 -455.866 48.9953 -452.591 54.7528C-449.316 60.4744 -447.679 67.1316 -447.679 74.7244C-447.679 82.3532 -449.352 89.0284 -452.699 94.75C-456.009 100.436 -460.741 104.844 -466.895 107.974C-473.048 111.105 -480.353 112.67 -488.81 112.67H-516.986V91.6193H-493.776C-489.745 91.6193 -486.381 90.9176 -483.682 89.5142C-480.947 88.1108 -478.878 86.1496 -477.474 83.6307C-476.071 81.0758 -475.369 78.107 -475.369 74.7244C-475.369 71.3059 -476.071 68.3551 -477.474 65.8722C-478.878 63.3532 -480.947 61.41 -483.682 60.0426C-486.417 58.6752 -489.781 57.9915 -493.776 57.9915H-506.946V147H-533.665ZM-434.509 147V36.4545H-388.844C-380.567 36.4545 -373.424 38.0739 -367.415 41.3125C-361.369 44.5151 -356.709 48.9953 -353.435 54.7528C-350.16 60.4744 -348.523 67.1316 -348.523 74.7244C-348.523 82.3532 -350.196 89.0284 -353.543 94.75C-356.853 100.436 -361.585 104.844 -367.739 107.974C-373.892 111.105 -381.197 112.67 -389.653 112.67H-417.83V91.6193H-394.619C-390.589 91.6193 -387.224 90.9176 -384.526 89.5142C-381.791 88.1108 -379.722 86.1496 -378.318 83.6307C-376.915 81.0758 -376.213 78.107 -376.213 74.7244C-376.213 71.3059 -376.915 68.3551 -378.318 65.8722C-379.722 63.3532 -381.791 61.41 -384.526 60.0426C-387.26 58.6752 -390.625 57.9915 -394.619 57.9915H-407.79V147H-434.509ZM-340.858 36.4545H-311.009L-287.636 82.7131H-286.665L-263.293 36.4545H-233.443L-273.872 110.08V147H-300.429V110.08L-340.858 36.4545ZM-148.726 147H-189.587V36.4545H-148.78C-137.517 36.4545 -127.819 38.6676 -119.686 43.0938C-111.518 47.4839 -105.22 53.8172 -100.794 62.0938C-96.3679 70.3343 -94.1548 80.1941 -94.1548 91.6733C-94.1548 103.188 -96.3679 113.084 -100.794 121.361C-105.184 129.637 -111.464 135.989 -119.632 140.415C-127.801 144.805 -137.499 147 -148.726 147ZM-162.868 124.222H-149.751C-143.562 124.222 -138.326 123.178 -134.044 121.091C-129.726 118.968 -126.469 115.531 -124.274 110.781C-122.043 105.995 -120.928 99.6259 -120.928 91.6733C-120.928 83.7206 -122.043 77.3873 -124.274 72.6733C-126.505 67.9233 -129.798 64.5047 -134.152 62.4176C-138.47 60.2945 -143.796 59.2329 -150.129 59.2329H-162.868V124.222ZM-61.1747 147H-89.8906L-52.5923 36.4545H-17.0213L20.277 147H-8.43892L-34.402 64.3068H-35.2656L-61.1747 147ZM-65.0071 103.494H-4.98438V123.79H-65.0071V103.494ZM88.5178 69.5966C88.1579 65.6383 86.5566 62.5615 83.7138 60.3665C80.907 58.1354 76.8947 57.0199 71.6768 57.0199C68.2223 57.0199 65.3435 57.4697 63.0405 58.3693C60.7375 59.2689 59.0102 60.5104 57.8587 62.0938C56.7072 63.6411 56.1134 65.4223 56.0774 67.4375C56.0054 69.0928 56.3293 70.5502 57.049 71.8097C57.8047 73.0691 58.8842 74.1847 60.2876 75.1562C61.727 76.0919 63.4543 76.9195 65.4695 77.6392C67.4846 78.3589 69.7517 78.9886 72.2706 79.5284L81.7706 81.6875C87.2403 82.875 92.0623 84.4583 96.2365 86.4375C100.447 88.4167 103.973 90.7737 106.816 93.5085C109.695 96.2434 111.872 99.392 113.347 102.955C114.823 106.517 115.578 110.511 115.614 114.938C115.578 121.919 113.815 127.91 110.325 132.912C106.834 137.914 101.814 141.746 95.2649 144.409C88.7517 147.072 80.889 148.403 71.6768 148.403C62.4287 148.403 54.3681 147.018 47.495 144.247C40.6219 141.476 35.2782 137.266 31.4638 131.616C27.6494 125.967 25.6882 118.824 25.5803 110.188H51.1655C51.3814 113.75 52.335 116.719 54.0263 119.094C55.7176 121.469 58.0386 123.268 60.9893 124.491C63.9761 125.715 67.4306 126.327 71.353 126.327C74.9515 126.327 78.0102 125.841 80.5291 124.869C83.084 123.898 85.0452 122.548 86.4126 120.821C87.7801 119.094 88.4818 117.115 88.5178 114.884C88.4818 112.796 87.834 111.015 86.5746 109.54C85.3151 108.028 83.3719 106.733 80.745 105.653C78.1541 104.538 74.8435 103.512 70.8132 102.577L59.2621 99.8778C49.6901 97.6828 42.1513 94.1383 36.6456 89.2443C31.1399 84.3144 28.4051 77.6572 28.4411 69.2727C28.4051 62.4356 30.2403 56.4441 33.9467 51.2983C37.6532 46.1525 42.781 42.1401 49.3303 39.2614C55.8795 36.3826 63.3464 34.9432 71.7308 34.9432C80.2952 34.9432 87.7261 36.4006 94.0234 39.3153C100.357 42.1941 105.269 46.2424 108.759 51.4602C112.25 56.678 114.031 62.7235 114.103 69.5966H88.5178ZM129.109 147V36.4545H155.827V80.8239H199.387V36.4545H226.052V147H199.387V102.577H155.827V147H129.109ZM242.812 147V36.4545H288.908C297.185 36.4545 304.112 37.624 309.69 39.9631C315.303 42.3021 319.513 45.5767 322.32 49.7869C325.163 53.9972 326.585 58.8731 326.585 64.4148C326.585 68.625 325.703 72.3854 323.94 75.696C322.176 78.9706 319.747 81.6875 316.653 83.8466C313.558 86.0057 309.978 87.517 305.911 88.3807V89.4602C310.373 89.6761 314.494 90.8816 318.272 93.0767C322.086 95.2718 325.145 98.3305 327.448 102.253C329.751 106.139 330.903 110.745 330.903 116.071C330.903 122.009 329.391 127.316 326.369 131.994C323.346 136.636 318.974 140.307 313.252 143.006C307.531 145.669 300.585 147 292.417 147H242.812ZM269.531 125.463H286.048C291.841 125.463 296.105 124.366 298.84 122.17C301.611 119.975 302.996 116.917 302.996 112.994C302.996 110.152 302.331 107.705 300.999 105.653C299.668 103.566 297.779 101.965 295.332 100.849C292.885 99.6979 289.952 99.1222 286.533 99.1222H269.531V125.463ZM269.531 81.9034H284.32C287.235 81.9034 289.826 81.4176 292.093 80.446C294.36 79.4744 296.123 78.071 297.383 76.2358C298.678 74.4006 299.326 72.1875 299.326 69.5966C299.326 65.8901 298.013 62.9754 295.386 60.8523C292.759 58.7292 289.214 57.6676 284.752 57.6676H269.531V81.9034ZM448.087 91.7273C448.087 103.89 445.748 114.2 441.07 122.656C436.392 131.113 430.059 137.536 422.07 141.926C414.118 146.316 405.193 148.511 395.298 148.511C385.366 148.511 376.424 146.298 368.471 141.872C360.518 137.446 354.203 131.023 349.525 122.602C344.883 114.146 342.562 103.854 342.562 91.7273C342.562 79.5644 344.883 69.2547 349.525 60.7983C354.203 52.3419 360.518 45.9186 368.471 41.5284C376.424 37.1383 385.366 34.9432 395.298 34.9432C405.193 34.9432 414.118 37.1383 422.07 41.5284C430.059 45.9186 436.392 52.3419 441.07 60.7983C445.748 69.2547 448.087 79.5644 448.087 91.7273ZM420.775 91.7273C420.775 84.5303 419.749 78.4489 417.698 73.483C415.683 68.517 412.768 64.7566 408.954 62.2017C405.175 59.6468 400.623 58.3693 395.298 58.3693C390.008 58.3693 385.456 59.6468 381.641 62.2017C377.827 64.7566 374.894 68.517 372.843 73.483C370.828 78.4489 369.82 84.5303 369.82 91.7273C369.82 98.9242 370.828 105.006 372.843 109.972C374.894 114.937 377.827 118.698 381.641 121.253C385.456 123.808 390.008 125.085 395.298 125.085C400.623 125.085 405.175 123.808 408.954 121.253C412.768 118.698 415.683 114.937 417.698 109.972C419.749 105.006 420.775 98.9242 420.775 91.7273ZM481.067 147H452.352L489.65 36.4545H525.221L562.519 147H533.803L507.84 64.3068H506.977L481.067 147ZM477.235 103.494H537.258V123.79H477.235V103.494ZM574.421 147V36.4545H620.086C628.362 36.4545 635.505 37.9479 641.515 40.9347C647.56 43.8854 652.22 48.1316 655.495 53.6733C658.77 59.179 660.407 65.7102 660.407 73.267C660.407 80.9318 658.734 87.4451 655.387 92.8068C652.04 98.1326 647.29 102.199 641.137 105.006C634.984 107.777 627.697 109.162 619.276 109.162H590.398V88.1108H614.31C618.341 88.1108 621.705 87.589 624.404 86.5455C627.139 85.4659 629.208 83.8466 630.612 81.6875C632.015 79.4924 632.717 76.6856 632.717 73.267C632.717 69.8485 632.015 67.0237 630.612 64.7926C629.208 62.5256 627.139 60.8343 624.404 59.7188C621.669 58.5672 618.305 57.9915 614.31 57.9915H601.14V147H574.421ZM636.657 96.4773L664.185 147H635.038L608.049 96.4773H636.657ZM715.923 147H675.062V36.4545H715.869C727.132 36.4545 736.83 38.6676 744.962 43.0938C753.131 47.4839 759.428 53.8172 763.854 62.0938C768.281 70.3343 770.494 80.1941 770.494 91.6733C770.494 103.188 768.281 113.084 763.854 121.361C759.464 129.637 753.185 135.989 745.016 140.415C736.848 144.805 727.15 147 715.923 147ZM701.781 124.222H714.897C721.086 124.222 726.322 123.178 730.604 121.091C734.923 118.968 738.179 115.531 740.374 110.781C742.605 105.995 743.721 99.6259 743.721 91.6733C743.721 83.7206 742.605 77.3873 740.374 72.6733C738.143 67.9233 734.851 64.5047 730.496 62.4176C726.178 60.2945 720.853 59.2329 714.519 59.2329H701.781V124.222Z" fill="#E6F1FC"/>
<path d="M858.366 147V36.4545H885.085V80.8239H928.645V36.4545H955.31V147H928.645V102.577H885.085V147H858.366ZM995.982 147H967.266L1004.56 36.4545H1040.13L1077.43 147H1048.72L1022.75 64.3068H1021.89L995.982 147ZM992.149 103.494H1052.17V123.79H992.149V103.494ZM1089.34 147V36.4545H1135C1143.28 36.4545 1150.42 38.0739 1156.43 41.3125C1162.47 44.5151 1167.13 48.9953 1170.41 54.7528C1173.68 60.4744 1175.32 67.1316 1175.32 74.7244C1175.32 82.3532 1173.65 89.0284 1170.3 94.75C1166.99 100.436 1162.26 104.844 1156.11 107.974C1149.95 111.105 1142.65 112.67 1134.19 112.67H1106.01V91.6193H1129.22C1133.25 91.6193 1136.62 90.9176 1139.32 89.5142C1142.05 88.1108 1144.12 86.1496 1145.53 83.6307C1146.93 81.0758 1147.63 78.107 1147.63 74.7244C1147.63 71.3059 1146.93 68.3551 1145.53 65.8722C1144.12 63.3532 1142.05 61.41 1139.32 60.0426C1136.58 58.6752 1133.22 57.9915 1129.22 57.9915H1116.05V147H1089.34ZM1188.49 147V36.4545H1234.16C1242.43 36.4545 1249.58 38.0739 1255.59 41.3125C1261.63 44.5151 1266.29 48.9953 1269.57 54.7528C1272.84 60.4744 1274.48 67.1316 1274.48 74.7244C1274.48 82.3532 1272.8 89.0284 1269.46 94.75C1266.15 100.436 1261.41 104.844 1255.26 107.974C1249.11 111.105 1241.8 112.67 1233.35 112.67H1205.17V91.6193H1228.38C1232.41 91.6193 1235.78 90.9176 1238.47 89.5142C1241.21 88.1108 1243.28 86.1496 1244.68 83.6307C1246.09 81.0758 1246.79 78.107 1246.79 74.7244C1246.79 71.3059 1246.09 68.3551 1244.68 65.8722C1243.28 63.3532 1241.21 61.41 1238.47 60.0426C1235.74 58.6752 1232.38 57.9915 1228.38 57.9915H1215.21V147H1188.49ZM1282.14 36.4545H1311.99L1335.36 82.7131H1336.34L1359.71 36.4545H1389.56L1349.13 110.08V147H1322.57V110.08L1282.14 36.4545ZM1474.27 147H1433.41V36.4545H1474.22C1485.48 36.4545 1495.18 38.6676 1503.31 43.0938C1511.48 47.4839 1517.78 53.8172 1522.21 62.0938C1526.63 70.3343 1528.85 80.1941 1528.85 91.6733C1528.85 103.188 1526.63 113.084 1522.21 121.361C1517.82 129.637 1511.54 135.989 1503.37 140.415C1495.2 144.805 1485.5 147 1474.27 147ZM1460.13 124.222H1473.25C1479.44 124.222 1484.67 123.178 1488.96 121.091C1493.27 118.968 1496.53 115.531 1498.73 110.781C1500.96 105.995 1502.07 99.6259 1502.07 91.6733C1502.07 83.7206 1500.96 77.3873 1498.73 72.6733C1496.49 67.9233 1493.2 64.5047 1488.85 62.4176C1484.53 60.2945 1479.2 59.2329 1472.87 59.2329H1460.13V124.222ZM1561.83 147H1533.11L1570.41 36.4545H1605.98L1643.28 147H1614.56L1588.6 64.3068H1587.73L1561.83 147ZM1557.99 103.494H1618.02V123.79H1557.99V103.494ZM1711.52 69.5966C1711.16 65.6383 1709.56 62.5615 1706.71 60.3665C1703.91 58.1354 1699.89 57.0199 1694.68 57.0199C1691.22 57.0199 1688.34 57.4697 1686.04 58.3693C1683.74 59.2689 1682.01 60.5104 1680.86 62.0938C1679.71 63.6411 1679.11 65.4223 1679.08 67.4375C1679.01 69.0928 1679.33 70.5502 1680.05 71.8097C1680.8 73.0691 1681.88 74.1847 1683.29 75.1562C1684.73 76.0919 1686.45 76.9195 1688.47 77.6392C1690.48 78.3589 1692.75 78.9886 1695.27 79.5284L1704.77 81.6875C1710.24 82.875 1715.06 84.4583 1719.24 86.4375C1723.45 88.4167 1726.97 90.7737 1729.82 93.5085C1732.69 96.2434 1734.87 99.392 1736.35 102.955C1737.82 106.517 1738.58 110.511 1738.61 114.938C1738.58 121.919 1736.82 127.91 1733.32 132.912C1729.83 137.914 1724.81 141.746 1718.26 144.409C1711.75 147.072 1703.89 148.403 1694.68 148.403C1685.43 148.403 1677.37 147.018 1670.5 144.247C1663.62 141.476 1658.28 137.266 1654.46 131.616C1650.65 125.967 1648.69 118.824 1648.58 110.188H1674.17C1674.38 113.75 1675.33 116.719 1677.03 119.094C1678.72 121.469 1681.04 123.268 1683.99 124.491C1686.98 125.715 1690.43 126.327 1694.35 126.327C1697.95 126.327 1701.01 125.841 1703.53 124.869C1706.08 123.898 1708.05 122.548 1709.41 120.821C1710.78 119.094 1711.48 117.115 1711.52 114.884C1711.48 112.796 1710.83 111.015 1709.57 109.54C1708.32 108.028 1706.37 106.733 1703.75 105.653C1701.15 104.538 1697.84 103.512 1693.81 102.577L1682.26 99.8778C1672.69 97.6828 1665.15 94.1383 1659.65 89.2443C1654.14 84.3144 1651.41 77.6572 1651.44 69.2727C1651.41 62.4356 1653.24 56.4441 1656.95 51.2983C1660.65 46.1525 1665.78 42.1401 1672.33 39.2614C1678.88 36.3826 1686.35 34.9432 1694.73 34.9432C1703.3 34.9432 1710.73 36.4006 1717.02 39.3153C1723.36 42.1941 1728.27 46.2424 1731.76 51.4602C1735.25 56.678 1737.03 62.7235 1737.1 69.5966H1711.52ZM1752.11 147V36.4545H1778.83V80.8239H1822.39V36.4545H1849.05V147H1822.39V102.577H1778.83V147H1752.11ZM1865.81 147V36.4545H1911.91C1920.18 36.4545 1927.11 37.624 1932.69 39.9631C1938.3 42.3021 1942.51 45.5767 1945.32 49.7869C1948.16 53.9972 1949.58 58.8731 1949.58 64.4148C1949.58 68.625 1948.7 72.3854 1946.94 75.696C1945.18 78.9706 1942.75 81.6875 1939.65 83.8466C1936.56 86.0057 1932.98 87.517 1928.91 88.3807V89.4602C1933.37 89.6761 1937.49 90.8816 1941.27 93.0767C1945.09 95.2718 1948.15 98.3305 1950.45 102.253C1952.75 106.139 1953.9 110.745 1953.9 116.071C1953.9 122.009 1952.39 127.316 1949.37 131.994C1946.35 136.636 1941.97 140.307 1936.25 143.006C1930.53 145.669 1923.59 147 1915.42 147H1865.81ZM1892.53 125.463H1909.05C1914.84 125.463 1919.11 124.366 1921.84 122.17C1924.61 119.975 1926 116.917 1926 112.994C1926 110.152 1925.33 107.705 1924 105.653C1922.67 103.566 1920.78 101.965 1918.33 100.849C1915.88 99.6979 1912.95 99.1222 1909.53 99.1222H1892.53V125.463ZM1892.53 81.9034H1907.32C1910.24 81.9034 1912.83 81.4176 1915.09 80.446C1917.36 79.4744 1919.12 78.071 1920.38 76.2358C1921.68 74.4006 1922.33 72.1875 1922.33 69.5966C1922.33 65.8901 1921.01 62.9754 1918.39 60.8523C1915.76 58.7292 1912.21 57.6676 1907.75 57.6676H1892.53V81.9034ZM2071.09 91.7273C2071.09 103.89 2068.75 114.2 2064.07 122.656C2059.39 131.113 2053.06 137.536 2045.07 141.926C2037.12 146.316 2028.19 148.511 2018.3 148.511C2008.37 148.511 1999.42 146.298 1991.47 141.872C1983.52 137.446 1977.2 131.023 1972.52 122.602C1967.88 114.146 1965.56 103.854 1965.56 91.7273C1965.56 79.5644 1967.88 69.2547 1972.52 60.7983C1977.2 52.3419 1983.52 45.9186 1991.47 41.5284C1999.42 37.1383 2008.37 34.9432 2018.3 34.9432C2028.19 34.9432 2037.12 37.1383 2045.07 41.5284C2053.06 45.9186 2059.39 52.3419 2064.07 60.7983C2068.75 69.2547 2071.09 79.5644 2071.09 91.7273ZM2043.77 91.7273C2043.77 84.5303 2042.75 78.4489 2040.7 73.483C2038.68 68.517 2035.77 64.7566 2031.95 62.2017C2028.18 59.6468 2023.62 58.3693 2018.3 58.3693C2013.01 58.3693 2008.46 59.6468 2004.64 62.2017C2000.83 64.7566 1997.89 68.517 1995.84 73.483C1993.83 78.4489 1992.82 84.5303 1992.82 91.7273C1992.82 98.9242 1993.83 105.006 1995.84 109.972C1997.89 114.937 2000.83 118.698 2004.64 121.253C2008.46 123.808 2013.01 125.085 2018.3 125.085C2023.62 125.085 2028.18 123.808 2031.95 121.253C2035.77 118.698 2038.68 114.937 2040.7 109.972C2042.75 105.006 2043.77 98.9242 2043.77 91.7273ZM2104.07 147H2075.35L2112.65 36.4545H2148.22L2185.52 147H2156.8L2130.84 64.3068H2129.98L2104.07 147ZM2100.24 103.494H2160.26V123.79H2100.24V103.494ZM2197.42 147V36.4545H2243.09C2251.36 36.4545 2258.51 37.9479 2264.51 40.9347C2270.56 43.8854 2275.22 48.1316 2278.5 53.6733C2281.77 59.179 2283.41 65.7102 2283.41 73.267C2283.41 80.9318 2281.73 87.4451 2278.39 92.8068C2275.04 98.1326 2270.29 102.199 2264.14 105.006C2257.98 107.777 2250.7 109.162 2242.28 109.162H2213.4V88.1108H2237.31C2241.34 88.1108 2244.71 87.589 2247.4 86.5455C2250.14 85.4659 2252.21 83.8466 2253.61 81.6875C2255.01 79.4924 2255.72 76.6856 2255.72 73.267C2255.72 69.8485 2255.01 67.0237 2253.61 64.7926C2252.21 62.5256 2250.14 60.8343 2247.4 59.7188C2244.67 58.5672 2241.3 57.9915 2237.31 57.9915H2224.14V147H2197.42ZM2259.66 96.4773L2287.19 147H2258.04L2231.05 96.4773H2259.66ZM2338.92 147H2298.06V36.4545H2338.87C2350.13 36.4545 2359.83 38.6676 2367.96 43.0938C2376.13 47.4839 2382.43 53.8172 2386.85 62.0938C2391.28 70.3343 2393.49 80.1941 2393.49 91.6733C2393.49 103.188 2391.28 113.084 2386.85 121.361C2382.46 129.637 2376.18 135.989 2368.02 140.415C2359.85 144.805 2350.15 147 2338.92 147ZM2324.78 124.222H2337.9C2344.09 124.222 2349.32 123.178 2353.6 121.091C2357.92 118.968 2361.18 115.531 2363.37 110.781C2365.61 105.995 2366.72 99.6259 2366.72 91.6733C2366.72 83.7206 2365.61 77.3873 2363.37 72.6733C2361.14 67.9233 2357.85 64.5047 2353.5 62.4176C2349.18 60.2945 2343.85 59.2329 2337.52 59.2329H2324.78V124.222Z" fill="#E6F1FC"/>
<path d="M-1144.63 323V212.455H-1117.91V256.824H-1074.36V212.455H-1047.69V323H-1074.36V278.577H-1117.91V323H-1144.63ZM-1007.02 323H-1035.73L-998.436 212.455H-962.865L-925.567 323H-954.283L-980.246 240.307H-981.109L-1007.02 323ZM-1010.85 279.494H-950.828V299.79H-1010.85V279.494ZM-913.665 323V212.455H-868C-859.723 212.455 -852.58 214.074 -846.571 217.312C-840.526 220.515 -835.866 224.995 -832.591 230.753C-829.316 236.474 -827.679 243.132 -827.679 250.724C-827.679 258.353 -829.352 265.028 -832.699 270.75C-836.009 276.436 -840.741 280.844 -846.895 283.974C-853.048 287.105 -860.353 288.67 -868.81 288.67H-896.986V267.619H-873.776C-869.745 267.619 -866.381 266.918 -863.682 265.514C-860.947 264.111 -858.878 262.15 -857.474 259.631C-856.071 257.076 -855.369 254.107 -855.369 250.724C-855.369 247.306 -856.071 244.355 -857.474 241.872C-858.878 239.353 -860.947 237.41 -863.682 236.043C-866.417 234.675 -869.781 233.991 -873.776 233.991H-886.946V323H-913.665ZM-814.509 323V212.455H-768.844C-760.567 212.455 -753.424 214.074 -747.415 217.312C-741.369 220.515 -736.709 224.995 -733.435 230.753C-730.16 236.474 -728.523 243.132 -728.523 250.724C-728.523 258.353 -730.196 265.028 -733.543 270.75C-736.853 276.436 -741.585 280.844 -747.739 283.974C-753.892 287.105 -761.197 288.67 -769.653 288.67H-797.83V267.619H-774.619C-770.589 267.619 -767.224 266.918 -764.526 265.514C-761.791 264.111 -759.722 262.15 -758.318 259.631C-756.915 257.076 -756.213 254.107 -756.213 250.724C-756.213 247.306 -756.915 244.355 -758.318 241.872C-759.722 239.353 -761.791 237.41 -764.526 236.043C-767.26 234.675 -770.625 233.991 -774.619 233.991H-787.79V323H-814.509ZM-720.858 212.455H-691.009L-667.636 258.713H-666.665L-643.293 212.455H-613.443L-653.872 286.08V323H-680.429V286.08L-720.858 212.455ZM-528.726 323H-569.587V212.455H-528.78C-517.517 212.455 -507.819 214.668 -499.686 219.094C-491.518 223.484 -485.22 229.817 -480.794 238.094C-476.368 246.334 -474.155 256.194 -474.155 267.673C-474.155 279.188 -476.368 289.084 -480.794 297.361C-485.184 305.637 -491.464 311.989 -499.632 316.415C-507.801 320.805 -517.499 323 -528.726 323ZM-542.868 300.222H-529.751C-523.562 300.222 -518.326 299.178 -514.044 297.091C-509.726 294.968 -506.469 291.531 -504.274 286.781C-502.043 281.995 -500.928 275.626 -500.928 267.673C-500.928 259.721 -502.043 253.387 -504.274 248.673C-506.505 243.923 -509.798 240.505 -514.152 238.418C-518.47 236.295 -523.796 235.233 -530.129 235.233H-542.868V300.222ZM-441.175 323H-469.891L-432.592 212.455H-397.021L-359.723 323H-388.439L-414.402 240.307H-415.266L-441.175 323ZM-445.007 279.494H-384.984V299.79H-445.007V279.494ZM-291.482 245.597C-291.842 241.638 -293.443 238.562 -296.286 236.366C-299.093 234.135 -303.105 233.02 -308.323 233.02C-311.778 233.02 -314.656 233.47 -316.96 234.369C-319.263 235.269 -320.99 236.51 -322.141 238.094C-323.293 239.641 -323.887 241.422 -323.923 243.438C-323.995 245.093 -323.671 246.55 -322.951 247.81C-322.195 249.069 -321.116 250.185 -319.712 251.156C-318.273 252.092 -316.546 252.92 -314.531 253.639C-312.515 254.359 -310.248 254.989 -307.729 255.528L-298.229 257.688C-292.76 258.875 -287.938 260.458 -283.763 262.438C-279.553 264.417 -276.027 266.774 -273.184 269.509C-270.305 272.243 -268.128 275.392 -266.653 278.955C-265.177 282.517 -264.422 286.511 -264.386 290.938C-264.422 297.919 -266.185 303.91 -269.675 308.912C-273.166 313.914 -278.186 317.746 -284.735 320.409C-291.248 323.072 -299.111 324.403 -308.323 324.403C-317.571 324.403 -325.632 323.018 -332.505 320.247C-339.378 317.476 -344.722 313.266 -348.536 307.616C-352.351 301.967 -354.312 294.824 -354.42 286.188H-328.835C-328.619 289.75 -327.665 292.719 -325.974 295.094C-324.282 297.469 -321.961 299.268 -319.011 300.491C-316.024 301.715 -312.569 302.327 -308.647 302.327C-305.049 302.327 -301.99 301.841 -299.471 300.869C-296.916 299.898 -294.955 298.548 -293.587 296.821C-292.22 295.094 -291.518 293.115 -291.482 290.884C-291.518 288.796 -292.166 287.015 -293.425 285.54C-294.685 284.028 -296.628 282.733 -299.255 281.653C-301.846 280.538 -305.156 279.512 -309.187 278.577L-320.738 275.878C-330.31 273.683 -337.849 270.138 -343.354 265.244C-348.86 260.314 -351.595 253.657 -351.559 245.273C-351.595 238.436 -349.76 232.444 -346.053 227.298C-342.347 222.152 -337.219 218.14 -330.67 215.261C-324.121 212.383 -316.654 210.943 -308.269 210.943C-299.705 210.943 -292.274 212.401 -285.977 215.315C-279.643 218.194 -274.731 222.242 -271.241 227.46C-267.75 232.678 -265.969 238.723 -265.897 245.597H-291.482ZM-250.891 323V212.455H-224.173V256.824H-180.613V212.455H-153.948V323H-180.613V278.577H-224.173V323H-250.891ZM-137.188 323V212.455H-91.0916C-82.8151 212.455 -75.888 213.624 -70.3104 215.963C-64.6967 218.302 -60.4865 221.577 -57.6797 225.787C-54.8369 229.997 -53.4155 234.873 -53.4155 240.415C-53.4155 244.625 -54.2971 248.385 -56.0604 251.696C-57.8236 254.971 -60.2526 257.687 -63.3473 259.847C-66.442 262.006 -70.0225 263.517 -74.0888 264.381V265.46C-69.6267 265.676 -65.5064 266.882 -61.728 269.077C-57.9136 271.272 -54.8549 274.33 -52.5518 278.253C-50.2488 282.139 -49.0973 286.745 -49.0973 292.071C-49.0973 298.009 -50.6087 303.316 -53.6314 307.994C-56.6541 312.636 -61.0263 316.307 -66.7479 319.006C-72.4695 321.669 -79.4145 323 -87.5831 323H-137.188ZM-110.469 301.463H-93.9524C-88.1589 301.463 -83.8946 300.366 -81.1598 298.17C-78.389 295.975 -77.0035 292.917 -77.0035 288.994C-77.0035 286.152 -77.6693 283.705 -79.0007 281.653C-80.3321 279.566 -82.2214 277.965 -84.6683 276.849C-87.1153 275.698 -90.0481 275.122 -93.4666 275.122H-110.469V301.463ZM-110.469 257.903H-95.6797C-92.7649 257.903 -90.174 257.418 -87.907 256.446C-85.6399 255.474 -83.8767 254.071 -82.6172 252.236C-81.3217 250.401 -80.674 248.187 -80.674 245.597C-80.674 241.89 -81.9875 238.975 -84.6143 236.852C-87.2412 234.729 -90.7857 233.668 -95.2479 233.668H-110.469V257.903ZM68.0874 267.727C68.0874 279.89 65.7483 290.2 61.0703 298.656C56.3923 307.113 50.059 313.536 42.0703 317.926C34.1177 322.316 25.1934 324.511 15.2976 324.511C5.36577 324.511 -3.57647 322.298 -11.5291 317.872C-19.4818 313.446 -25.7971 307.023 -30.4751 298.602C-35.1172 290.146 -37.4382 279.854 -37.4382 267.727C-37.4382 255.564 -35.1172 245.255 -30.4751 236.798C-25.7971 228.342 -19.4818 221.919 -11.5291 217.528C-3.57647 213.138 5.36577 210.943 15.2976 210.943C25.1934 210.943 34.1177 213.138 42.0703 217.528C50.059 221.919 56.3923 228.342 61.0703 236.798C65.7483 245.255 68.0874 255.564 68.0874 267.727ZM40.7749 267.727C40.7749 260.53 39.7493 254.449 37.6982 249.483C35.683 244.517 32.7682 240.757 28.9538 238.202C25.1754 235.647 20.6233 234.369 15.2976 234.369C10.0078 234.369 5.45573 235.647 1.64134 238.202C-2.17306 240.757 -5.10582 244.517 -7.15696 249.483C-9.17211 254.449 -10.1797 260.53 -10.1797 267.727C-10.1797 274.924 -9.17211 281.006 -7.15696 285.972C-5.10582 290.937 -2.17306 294.698 1.64134 297.253C5.45573 299.808 10.0078 301.085 15.2976 301.085C20.6233 301.085 25.1754 299.808 28.9538 297.253C32.7682 294.698 35.683 290.937 37.6982 285.972C39.7493 281.006 40.7749 274.924 40.7749 267.727ZM101.067 323H72.3516L109.65 212.455H145.221L182.519 323H153.803L127.84 240.307H126.977L101.067 323ZM97.2351 279.494H157.258V299.79H97.2351V279.494ZM194.421 323V212.455H240.086C248.362 212.455 255.505 213.948 261.515 216.935C267.56 219.885 272.22 224.132 275.495 229.673C278.77 235.179 280.407 241.71 280.407 249.267C280.407 256.932 278.734 263.445 275.387 268.807C272.04 274.133 267.29 278.199 261.137 281.006C254.984 283.777 247.697 285.162 239.276 285.162H210.398V264.111H234.31C238.341 264.111 241.705 263.589 244.404 262.545C247.139 261.466 249.208 259.847 250.612 257.688C252.015 255.492 252.717 252.686 252.717 249.267C252.717 245.848 252.015 243.024 250.612 240.793C249.208 238.526 247.139 236.834 244.404 235.719C241.669 234.567 238.305 233.991 234.31 233.991H221.14V323H194.421ZM256.657 272.477L284.185 323H255.038L228.049 272.477H256.657ZM335.923 323H295.062V212.455H335.869C347.132 212.455 356.83 214.668 364.962 219.094C373.131 223.484 379.428 229.817 383.854 238.094C388.281 246.334 390.494 256.194 390.494 267.673C390.494 279.188 388.281 289.084 383.854 297.361C379.464 305.637 373.185 311.989 365.016 316.415C356.848 320.805 347.15 323 335.923 323ZM321.781 300.222H334.897C341.086 300.222 346.322 299.178 350.604 297.091C354.923 294.968 358.179 291.531 360.374 286.781C362.605 281.995 363.721 275.626 363.721 267.673C363.721 259.721 362.605 253.387 360.374 248.673C358.143 243.923 354.851 240.505 350.496 238.418C346.178 236.295 340.853 235.233 334.519 235.233H321.781V300.222Z" fill="#E6F1FC"/>
<path d="M478.366 323V212.455H505.085V256.824H548.645V212.455H575.31V323H548.645V278.577H505.085V323H478.366ZM615.982 323H587.266L624.564 212.455H660.135L697.433 323H668.717L642.754 240.307H641.891L615.982 323ZM612.149 279.494H672.172V299.79H612.149V279.494ZM709.335 323V212.455H755C763.277 212.455 770.42 214.074 776.429 217.312C782.474 220.515 787.134 224.995 790.409 230.753C793.684 236.474 795.321 243.132 795.321 250.724C795.321 258.353 793.648 265.028 790.301 270.75C786.991 276.436 782.259 280.844 776.105 283.974C769.952 287.105 762.647 288.67 754.19 288.67H726.014V267.619H749.224C753.255 267.619 756.619 266.918 759.318 265.514C762.053 264.111 764.122 262.15 765.526 259.631C766.929 257.076 767.631 254.107 767.631 250.724C767.631 247.306 766.929 244.355 765.526 241.872C764.122 239.353 762.053 237.41 759.318 236.043C756.583 234.675 753.219 233.991 749.224 233.991H736.054V323H709.335ZM808.491 323V212.455H854.156C862.433 212.455 869.576 214.074 875.585 217.312C881.631 220.515 886.291 224.995 889.565 230.753C892.84 236.474 894.477 243.132 894.477 250.724C894.477 258.353 892.804 265.028 889.457 270.75C886.147 276.436 881.415 280.844 875.261 283.974C869.108 287.105 861.803 288.67 853.347 288.67H825.17V267.619H848.381C852.411 267.619 855.776 266.918 858.474 265.514C861.209 264.111 863.278 262.15 864.682 259.631C866.085 257.076 866.787 254.107 866.787 250.724C866.787 247.306 866.085 244.355 864.682 241.872C863.278 239.353 861.209 237.41 858.474 236.043C855.74 234.675 852.375 233.991 848.381 233.991H835.21V323H808.491ZM902.142 212.455H931.991L955.364 258.713H956.335L979.707 212.455H1009.56L969.128 286.08V323H942.571V286.08L902.142 212.455ZM1094.27 323H1053.41V212.455H1094.22C1105.48 212.455 1115.18 214.668 1123.31 219.094C1131.48 223.484 1137.78 229.817 1142.21 238.094C1146.63 246.334 1148.85 256.194 1148.85 267.673C1148.85 279.188 1146.63 289.084 1142.21 297.361C1137.82 305.637 1131.54 311.989 1123.37 316.415C1115.2 320.805 1105.5 323 1094.27 323ZM1080.13 300.222H1093.25C1099.44 300.222 1104.67 299.178 1108.96 297.091C1113.27 294.968 1116.53 291.531 1118.73 286.781C1120.96 281.995 1122.07 275.626 1122.07 267.673C1122.07 259.721 1120.96 253.387 1118.73 248.673C1116.49 243.923 1113.2 240.505 1108.85 238.418C1104.53 236.295 1099.2 235.233 1092.87 235.233H1080.13V300.222ZM1181.83 323H1153.11L1190.41 212.455H1225.98L1263.28 323H1234.56L1208.6 240.307H1207.73L1181.83 323ZM1177.99 279.494H1238.02V299.79H1177.99V279.494ZM1331.52 245.597C1331.16 241.638 1329.56 238.562 1326.71 236.366C1323.91 234.135 1319.89 233.02 1314.68 233.02C1311.22 233.02 1308.34 233.47 1306.04 234.369C1303.74 235.269 1302.01 236.51 1300.86 238.094C1299.71 239.641 1299.11 241.422 1299.08 243.438C1299.01 245.093 1299.33 246.55 1300.05 247.81C1300.8 249.069 1301.88 250.185 1303.29 251.156C1304.73 252.092 1306.45 252.92 1308.47 253.639C1310.48 254.359 1312.75 254.989 1315.27 255.528L1324.77 257.688C1330.24 258.875 1335.06 260.458 1339.24 262.438C1343.45 264.417 1346.97 266.774 1349.82 269.509C1352.69 272.243 1354.87 275.392 1356.35 278.955C1357.82 282.517 1358.58 286.511 1358.61 290.938C1358.58 297.919 1356.82 303.91 1353.32 308.912C1349.83 313.914 1344.81 317.746 1338.26 320.409C1331.75 323.072 1323.89 324.403 1314.68 324.403C1305.43 324.403 1297.37 323.018 1290.5 320.247C1283.62 317.476 1278.28 313.266 1274.46 307.616C1270.65 301.967 1268.69 294.824 1268.58 286.188H1294.17C1294.38 289.75 1295.33 292.719 1297.03 295.094C1298.72 297.469 1301.04 299.268 1303.99 300.491C1306.98 301.715 1310.43 302.327 1314.35 302.327C1317.95 302.327 1321.01 301.841 1323.53 300.869C1326.08 299.898 1328.05 298.548 1329.41 296.821C1330.78 295.094 1331.48 293.115 1331.52 290.884C1331.48 288.796 1330.83 287.015 1329.57 285.54C1328.32 284.028 1326.37 282.733 1323.75 281.653C1321.15 280.538 1317.84 279.512 1313.81 278.577L1302.26 275.878C1292.69 273.683 1285.15 270.138 1279.65 265.244C1274.14 260.314 1271.41 253.657 1271.44 245.273C1271.41 238.436 1273.24 232.444 1276.95 227.298C1280.65 222.152 1285.78 218.14 1292.33 215.261C1298.88 212.383 1306.35 210.943 1314.73 210.943C1323.3 210.943 1330.73 212.401 1337.02 215.315C1343.36 218.194 1348.27 222.242 1351.76 227.46C1355.25 232.678 1357.03 238.723 1357.1 245.597H1331.52ZM1372.11 323V212.455H1398.83V256.824H1442.39V212.455H1469.05V323H1442.39V278.577H1398.83V323H1372.11ZM1485.81 323V212.455H1531.91C1540.18 212.455 1547.11 213.624 1552.69 215.963C1558.3 218.302 1562.51 221.577 1565.32 225.787C1568.16 229.997 1569.58 234.873 1569.58 240.415C1569.58 244.625 1568.7 248.385 1566.94 251.696C1565.18 254.971 1562.75 257.687 1559.65 259.847C1556.56 262.006 1552.98 263.517 1548.91 264.381V265.46C1553.37 265.676 1557.49 266.882 1561.27 269.077C1565.09 271.272 1568.15 274.33 1570.45 278.253C1572.75 282.139 1573.9 286.745 1573.9 292.071C1573.9 298.009 1572.39 303.316 1569.37 307.994C1566.35 312.636 1561.97 316.307 1556.25 319.006C1550.53 321.669 1543.59 323 1535.42 323H1485.81ZM1512.53 301.463H1529.05C1534.84 301.463 1539.11 300.366 1541.84 298.17C1544.61 295.975 1546 292.917 1546 288.994C1546 286.152 1545.33 283.705 1544 281.653C1542.67 279.566 1540.78 277.965 1538.33 276.849C1535.88 275.698 1532.95 275.122 1529.53 275.122H1512.53V301.463ZM1512.53 257.903H1527.32C1530.24 257.903 1532.83 257.418 1535.09 256.446C1537.36 255.474 1539.12 254.071 1540.38 252.236C1541.68 250.401 1542.33 248.187 1542.33 245.597C1542.33 241.89 1541.01 238.975 1538.39 236.852C1535.76 234.729 1532.21 233.668 1527.75 233.668H1512.53V257.903ZM1691.09 267.727C1691.09 279.89 1688.75 290.2 1684.07 298.656C1679.39 307.113 1673.06 313.536 1665.07 317.926C1657.12 322.316 1648.19 324.511 1638.3 324.511C1628.37 324.511 1619.42 322.298 1611.47 317.872C1603.52 313.446 1597.2 307.023 1592.52 298.602C1587.88 290.146 1585.56 279.854 1585.56 267.727C1585.56 255.564 1587.88 245.255 1592.52 236.798C1597.2 228.342 1603.52 221.919 1611.47 217.528C1619.42 213.138 1628.37 210.943 1638.3 210.943C1648.19 210.943 1657.12 213.138 1665.07 217.528C1673.06 221.919 1679.39 228.342 1684.07 236.798C1688.75 245.255 1691.09 255.564 1691.09 267.727ZM1663.77 267.727C1663.77 260.53 1662.75 254.449 1660.7 249.483C1658.68 244.517 1655.77 240.757 1651.95 238.202C1648.18 235.647 1643.62 234.369 1638.3 234.369C1633.01 234.369 1628.46 235.647 1624.64 238.202C1620.83 240.757 1617.89 244.517 1615.84 249.483C1613.83 254.449 1612.82 260.53 1612.82 267.727C1612.82 274.924 1613.83 281.006 1615.84 285.972C1617.89 290.937 1620.83 294.698 1624.64 297.253C1628.46 299.808 1633.01 301.085 1638.3 301.085C1643.62 301.085 1648.18 299.808 1651.95 297.253C1655.77 294.698 1658.68 290.937 1660.7 285.972C1662.75 281.006 1663.77 274.924 1663.77 267.727ZM1724.07 323H1695.35L1732.65 212.455H1768.22L1805.52 323H1776.8L1750.84 240.307H1749.98L1724.07 323ZM1720.24 279.494H1780.26V299.79H1720.24V279.494ZM1817.42 323V212.455H1863.09C1871.36 212.455 1878.51 213.948 1884.51 216.935C1890.56 219.885 1895.22 224.132 1898.5 229.673C1901.77 235.179 1903.41 241.71 1903.41 249.267C1903.41 256.932 1901.73 263.445 1898.39 268.807C1895.04 274.133 1890.29 278.199 1884.14 281.006C1877.98 283.777 1870.7 285.162 1862.28 285.162H1833.4V264.111H1857.31C1861.34 264.111 1864.71 263.589 1867.4 262.545C1870.14 261.466 1872.21 259.847 1873.61 257.688C1875.01 255.492 1875.72 252.686 1875.72 249.267C1875.72 245.848 1875.01 243.024 1873.61 240.793C1872.21 238.526 1870.14 236.834 1867.4 235.719C1864.67 234.567 1861.3 233.991 1857.31 233.991H1844.14V323H1817.42ZM1879.66 272.477L1907.19 323H1878.04L1851.05 272.477H1879.66ZM1958.92 323H1918.06V212.455H1958.87C1970.13 212.455 1979.83 214.668 1987.96 219.094C1996.13 223.484 2002.43 229.817 2006.85 238.094C2011.28 246.334 2013.49 256.194 2013.49 267.673C2013.49 279.188 2011.28 289.084 2006.85 297.361C2002.46 305.637 1996.18 311.989 1988.02 316.415C1979.85 320.805 1970.15 323 1958.92 323ZM1944.78 300.222H1957.9C1964.09 300.222 1969.32 299.178 1973.6 297.091C1977.92 294.968 1981.18 291.531 1983.37 286.781C1985.61 281.995 1986.72 275.626 1986.72 267.673C1986.72 259.721 1985.61 253.387 1983.37 248.673C1981.14 243.923 1977.85 240.505 1973.5 238.418C1969.18 236.295 1963.85 235.233 1957.52 235.233H1944.78V300.222Z" fill="#E6F1FC"/>
<path d="M-764.634 535V424.455H-737.915V468.824H-694.355V424.455H-667.69V535H-694.355V490.577H-737.915V535H-764.634ZM-627.018 535H-655.734L-618.436 424.455H-582.865L-545.567 535H-574.283L-600.246 452.307H-601.109L-627.018 535ZM-630.851 491.494H-570.828V511.79H-630.851V491.494ZM-533.665 535V424.455H-488C-479.723 424.455 -472.58 426.074 -466.571 429.312C-460.526 432.515 -455.866 436.995 -452.591 442.753C-449.316 448.474 -447.679 455.132 -447.679 462.724C-447.679 470.353 -449.352 477.028 -452.699 482.75C-456.009 488.436 -460.741 492.844 -466.895 495.974C-473.048 499.105 -480.353 500.67 -488.81 500.67H-516.986V479.619H-493.776C-489.745 479.619 -486.381 478.918 -483.682 477.514C-480.947 476.111 -478.878 474.15 -477.474 471.631C-476.071 469.076 -475.369 466.107 -475.369 462.724C-475.369 459.306 -476.071 456.355 -477.474 453.872C-478.878 451.353 -480.947 449.41 -483.682 448.043C-486.417 446.675 -489.781 445.991 -493.776 445.991H-506.946V535H-533.665ZM-434.509 535V424.455H-388.844C-380.567 424.455 -373.424 426.074 -367.415 429.312C-361.369 432.515 -356.709 436.995 -353.435 442.753C-350.16 448.474 -348.523 455.132 -348.523 462.724C-348.523 470.353 -350.196 477.028 -353.543 482.75C-356.853 488.436 -361.585 492.844 -367.739 495.974C-373.892 499.105 -381.197 500.67 -389.653 500.67H-417.83V479.619H-394.619C-390.589 479.619 -387.224 478.918 -384.526 477.514C-381.791 476.111 -379.722 474.15 -378.318 471.631C-376.915 469.076 -376.213 466.107 -376.213 462.724C-376.213 459.306 -376.915 456.355 -378.318 453.872C-379.722 451.353 -381.791 449.41 -384.526 448.043C-387.26 446.675 -390.625 445.991 -394.619 445.991H-407.79V535H-434.509ZM-340.858 424.455H-311.009L-287.636 470.713H-286.665L-263.293 424.455H-233.443L-273.872 498.08V535H-300.429V498.08L-340.858 424.455ZM-148.726 535H-189.587V424.455H-148.78C-137.517 424.455 -127.819 426.668 -119.686 431.094C-111.518 435.484 -105.22 441.817 -100.794 450.094C-96.3679 458.334 -94.1548 468.194 -94.1548 479.673C-94.1548 491.188 -96.3679 501.084 -100.794 509.361C-105.184 517.637 -111.464 523.989 -119.632 528.415C-127.801 532.805 -137.499 535 -148.726 535ZM-162.868 512.222H-149.751C-143.562 512.222 -138.326 511.178 -134.044 509.091C-129.726 506.968 -126.469 503.531 -124.274 498.781C-122.043 493.995 -120.928 487.626 -120.928 479.673C-120.928 471.721 -122.043 465.387 -124.274 460.673C-126.505 455.923 -129.798 452.505 -134.152 450.418C-138.47 448.295 -143.796 447.233 -150.129 447.233H-162.868V512.222ZM-61.1747 535H-89.8906L-52.5923 424.455H-17.0213L20.277 535H-8.43892L-34.402 452.307H-35.2656L-61.1747 535ZM-65.0071 491.494H-4.98438V511.79H-65.0071V491.494ZM88.5178 457.597C88.1579 453.638 86.5566 450.562 83.7138 448.366C80.907 446.135 76.8947 445.02 71.6768 445.02C68.2223 445.02 65.3435 445.47 63.0405 446.369C60.7375 447.269 59.0102 448.51 57.8587 450.094C56.7072 451.641 56.1134 453.422 56.0774 455.438C56.0054 457.093 56.3293 458.55 57.049 459.81C57.8047 461.069 58.8842 462.185 60.2876 463.156C61.727 464.092 63.4543 464.92 65.4695 465.639C67.4846 466.359 69.7517 466.989 72.2706 467.528L81.7706 469.688C87.2403 470.875 92.0623 472.458 96.2365 474.438C100.447 476.417 103.973 478.774 106.816 481.509C109.695 484.243 111.872 487.392 113.347 490.955C114.823 494.517 115.578 498.511 115.614 502.938C115.578 509.919 113.815 515.91 110.325 520.912C106.834 525.914 101.814 529.746 95.2649 532.409C88.7517 535.072 80.889 536.403 71.6768 536.403C62.4287 536.403 54.3681 535.018 47.495 532.247C40.6219 529.476 35.2782 525.266 31.4638 519.616C27.6494 513.967 25.6882 506.824 25.5803 498.188H51.1655C51.3814 501.75 52.335 504.719 54.0263 507.094C55.7176 509.469 58.0386 511.268 60.9893 512.491C63.9761 513.715 67.4306 514.327 71.353 514.327C74.9515 514.327 78.0102 513.841 80.5291 512.869C83.084 511.898 85.0452 510.548 86.4126 508.821C87.7801 507.094 88.4818 505.115 88.5178 502.884C88.4818 500.796 87.834 499.015 86.5746 497.54C85.3151 496.028 83.3719 494.733 80.745 493.653C78.1541 492.538 74.8435 491.512 70.8132 490.577L59.2621 487.878C49.6901 485.683 42.1513 482.138 36.6456 477.244C31.1399 472.314 28.4051 465.657 28.4411 457.273C28.4051 450.436 30.2403 444.444 33.9467 439.298C37.6532 434.152 42.781 430.14 49.3303 427.261C55.8795 424.383 63.3464 422.943 71.7308 422.943C80.2952 422.943 87.7261 424.401 94.0234 427.315C100.357 430.194 105.269 434.242 108.759 439.46C112.25 444.678 114.031 450.723 114.103 457.597H88.5178ZM129.109 535V424.455H155.827V468.824H199.387V424.455H226.052V535H199.387V490.577H155.827V535H129.109ZM242.812 535V424.455H288.908C297.185 424.455 304.112 425.624 309.69 427.963C315.303 430.302 319.513 433.577 322.32 437.787C325.163 441.997 326.585 446.873 326.585 452.415C326.585 456.625 325.703 460.385 323.94 463.696C322.176 466.971 319.747 469.687 316.653 471.847C313.558 474.006 309.978 475.517 305.911 476.381V477.46C310.373 477.676 314.494 478.882 318.272 481.077C322.086 483.272 325.145 486.33 327.448 490.253C329.751 494.139 330.903 498.745 330.903 504.071C330.903 510.009 329.391 515.316 326.369 519.994C323.346 524.636 318.974 528.307 313.252 531.006C307.531 533.669 300.585 535 292.417 535H242.812ZM269.531 513.463H286.048C291.841 513.463 296.105 512.366 298.84 510.17C301.611 507.975 302.996 504.917 302.996 500.994C302.996 498.152 302.331 495.705 300.999 493.653C299.668 491.566 297.779 489.965 295.332 488.849C292.885 487.698 289.952 487.122 286.533 487.122H269.531V513.463ZM269.531 469.903H284.32C287.235 469.903 289.826 469.418 292.093 468.446C294.36 467.474 296.123 466.071 297.383 464.236C298.678 462.401 299.326 460.187 299.326 457.597C299.326 453.89 298.013 450.975 295.386 448.852C292.759 446.729 289.214 445.668 284.752 445.668H269.531V469.903ZM448.087 479.727C448.087 491.89 445.748 502.2 441.07 510.656C436.392 519.113 430.059 525.536 422.07 529.926C414.118 534.316 405.193 536.511 395.298 536.511C385.366 536.511 376.424 534.298 368.471 529.872C360.518 525.446 354.203 519.023 349.525 510.602C344.883 502.146 342.562 491.854 342.562 479.727C342.562 467.564 344.883 457.255 349.525 448.798C354.203 440.342 360.518 433.919 368.471 429.528C376.424 425.138 385.366 422.943 395.298 422.943C405.193 422.943 414.118 425.138 422.07 429.528C430.059 433.919 436.392 440.342 441.07 448.798C445.748 457.255 448.087 467.564 448.087 479.727ZM420.775 479.727C420.775 472.53 419.749 466.449 417.698 461.483C415.683 456.517 412.768 452.757 408.954 450.202C405.175 447.647 400.623 446.369 395.298 446.369C390.008 446.369 385.456 447.647 381.641 450.202C377.827 452.757 374.894 456.517 372.843 461.483C370.828 466.449 369.82 472.53 369.82 479.727C369.82 486.924 370.828 493.006 372.843 497.972C374.894 502.937 377.827 506.698 381.641 509.253C385.456 511.808 390.008 513.085 395.298 513.085C400.623 513.085 405.175 511.808 408.954 509.253C412.768 506.698 415.683 502.937 417.698 497.972C419.749 493.006 420.775 486.924 420.775 479.727ZM481.067 535H452.352L489.65 424.455H525.221L562.519 535H533.803L507.84 452.307H506.977L481.067 535ZM477.235 491.494H537.258V511.79H477.235V491.494ZM574.421 535V424.455H620.086C628.362 424.455 635.505 425.948 641.515 428.935C647.56 431.885 652.22 436.132 655.495 441.673C658.77 447.179 660.407 453.71 660.407 461.267C660.407 468.932 658.734 475.445 655.387 480.807C652.04 486.133 647.29 490.199 641.137 493.006C634.984 495.777 627.697 497.162 619.276 497.162H590.398V476.111H614.31C618.341 476.111 621.705 475.589 624.404 474.545C627.139 473.466 629.208 471.847 630.612 469.688C632.015 467.492 632.717 464.686 632.717 461.267C632.717 457.848 632.015 455.024 630.612 452.793C629.208 450.526 627.139 448.834 624.404 447.719C621.669 446.567 618.305 445.991 614.31 445.991H601.14V535H574.421ZM636.657 484.477L664.185 535H635.038L608.049 484.477H636.657ZM715.923 535H675.062V424.455H715.869C727.132 424.455 736.83 426.668 744.962 431.094C753.131 435.484 759.428 441.817 763.854 450.094C768.281 458.334 770.494 468.194 770.494 479.673C770.494 491.188 768.281 501.084 763.854 509.361C759.464 517.637 753.185 523.989 745.016 528.415C736.848 532.805 727.15 535 715.923 535ZM701.781 512.222H714.897C721.086 512.222 726.322 511.178 730.604 509.091C734.923 506.968 738.179 503.531 740.374 498.781C742.605 493.995 743.721 487.626 743.721 479.673C743.721 471.721 742.605 465.387 740.374 460.673C738.143 455.923 734.851 452.505 730.496 450.418C726.178 448.295 720.853 447.233 714.519 447.233H701.781V512.222Z" fill="#E6F1FC"/>
<path d="M858.366 535V424.455H885.085V468.824H928.645V424.455H955.31V535H928.645V490.577H885.085V535H858.366ZM995.982 535H967.266L1004.56 424.455H1040.13L1077.43 535H1048.72L1022.75 452.307H1021.89L995.982 535ZM992.149 491.494H1052.17V511.79H992.149V491.494ZM1089.34 535V424.455H1135C1143.28 424.455 1150.42 426.074 1156.43 429.312C1162.47 432.515 1167.13 436.995 1170.41 442.753C1173.68 448.474 1175.32 455.132 1175.32 462.724C1175.32 470.353 1173.65 477.028 1170.3 482.75C1166.99 488.436 1162.26 492.844 1156.11 495.974C1149.95 499.105 1142.65 500.67 1134.19 500.67H1106.01V479.619H1129.22C1133.25 479.619 1136.62 478.918 1139.32 477.514C1142.05 476.111 1144.12 474.15 1145.53 471.631C1146.93 469.076 1147.63 466.107 1147.63 462.724C1147.63 459.306 1146.93 456.355 1145.53 453.872C1144.12 451.353 1142.05 449.41 1139.32 448.043C1136.58 446.675 1133.22 445.991 1129.22 445.991H1116.05V535H1089.34ZM1188.49 535V424.455H1234.16C1242.43 424.455 1249.58 426.074 1255.59 429.312C1261.63 432.515 1266.29 436.995 1269.57 442.753C1272.84 448.474 1274.48 455.132 1274.48 462.724C1274.48 470.353 1272.8 477.028 1269.46 482.75C1266.15 488.436 1261.41 492.844 1255.26 495.974C1249.11 499.105 1241.8 500.67 1233.35 500.67H1205.17V479.619H1228.38C1232.41 479.619 1235.78 478.918 1238.47 477.514C1241.21 476.111 1243.28 474.15 1244.68 471.631C1246.09 469.076 1246.79 466.107 1246.79 462.724C1246.79 459.306 1246.09 456.355 1244.68 453.872C1243.28 451.353 1241.21 449.41 1238.47 448.043C1235.74 446.675 1232.38 445.991 1228.38 445.991H1215.21V535H1188.49ZM1282.14 424.455H1311.99L1335.36 470.713H1336.34L1359.71 424.455H1389.56L1349.13 498.08V535H1322.57V498.08L1282.14 424.455ZM1474.27 535H1433.41V424.455H1474.22C1485.48 424.455 1495.18 426.668 1503.31 431.094C1511.48 435.484 1517.78 441.817 1522.21 450.094C1526.63 458.334 1528.85 468.194 1528.85 479.673C1528.85 491.188 1526.63 501.084 1522.21 509.361C1517.82 517.637 1511.54 523.989 1503.37 528.415C1495.2 532.805 1485.5 535 1474.27 535ZM1460.13 512.222H1473.25C1479.44 512.222 1484.67 511.178 1488.96 509.091C1493.27 506.968 1496.53 503.531 1498.73 498.781C1500.96 493.995 1502.07 487.626 1502.07 479.673C1502.07 471.721 1500.96 465.387 1498.73 460.673C1496.49 455.923 1493.2 452.505 1488.85 450.418C1484.53 448.295 1479.2 447.233 1472.87 447.233H1460.13V512.222ZM1561.83 535H1533.11L1570.41 424.455H1605.98L1643.28 535H1614.56L1588.6 452.307H1587.73L1561.83 535ZM1557.99 491.494H1618.02V511.79H1557.99V491.494ZM1711.52 457.597C1711.16 453.638 1709.56 450.562 1706.71 448.366C1703.91 446.135 1699.89 445.02 1694.68 445.02C1691.22 445.02 1688.34 445.47 1686.04 446.369C1683.74 447.269 1682.01 448.51 1680.86 450.094C1679.71 451.641 1679.11 453.422 1679.08 455.438C1679.01 457.093 1679.33 458.55 1680.05 459.81C1680.8 461.069 1681.88 462.185 1683.29 463.156C1684.73 464.092 1686.45 464.92 1688.47 465.639C1690.48 466.359 1692.75 466.989 1695.27 467.528L1704.77 469.688C1710.24 470.875 1715.06 472.458 1719.24 474.438C1723.45 476.417 1726.97 478.774 1729.82 481.509C1732.69 484.243 1734.87 487.392 1736.35 490.955C1737.82 494.517 1738.58 498.511 1738.61 502.938C1738.58 509.919 1736.82 515.91 1733.32 520.912C1729.83 525.914 1724.81 529.746 1718.26 532.409C1711.75 535.072 1703.89 536.403 1694.68 536.403C1685.43 536.403 1677.37 535.018 1670.5 532.247C1663.62 529.476 1658.28 525.266 1654.46 519.616C1650.65 513.967 1648.69 506.824 1648.58 498.188H1674.17C1674.38 501.75 1675.33 504.719 1677.03 507.094C1678.72 509.469 1681.04 511.268 1683.99 512.491C1686.98 513.715 1690.43 514.327 1694.35 514.327C1697.95 514.327 1701.01 513.841 1703.53 512.869C1706.08 511.898 1708.05 510.548 1709.41 508.821C1710.78 507.094 1711.48 505.115 1711.52 502.884C1711.48 500.796 1710.83 499.015 1709.57 497.54C1708.32 496.028 1706.37 494.733 1703.75 493.653C1701.15 492.538 1697.84 491.512 1693.81 490.577L1682.26 487.878C1672.69 485.683 1665.15 482.138 1659.65 477.244C1654.14 472.314 1651.41 465.657 1651.44 457.273C1651.41 450.436 1653.24 444.444 1656.95 439.298C1660.65 434.152 1665.78 430.14 1672.33 427.261C1678.88 424.383 1686.35 422.943 1694.73 422.943C1703.3 422.943 1710.73 424.401 1717.02 427.315C1723.36 430.194 1728.27 434.242 1731.76 439.46C1735.25 444.678 1737.03 450.723 1737.1 457.597H1711.52ZM1752.11 535V424.455H1778.83V468.824H1822.39V424.455H1849.05V535H1822.39V490.577H1778.83V535H1752.11ZM1865.81 535V424.455H1911.91C1920.18 424.455 1927.11 425.624 1932.69 427.963C1938.3 430.302 1942.51 433.577 1945.32 437.787C1948.16 441.997 1949.58 446.873 1949.58 452.415C1949.58 456.625 1948.7 460.385 1946.94 463.696C1945.18 466.971 1942.75 469.687 1939.65 471.847C1936.56 474.006 1932.98 475.517 1928.91 476.381V477.46C1933.37 477.676 1937.49 478.882 1941.27 481.077C1945.09 483.272 1948.15 486.33 1950.45 490.253C1952.75 494.139 1953.9 498.745 1953.9 504.071C1953.9 510.009 1952.39 515.316 1949.37 519.994C1946.35 524.636 1941.97 528.307 1936.25 531.006C1930.53 533.669 1923.59 535 1915.42 535H1865.81ZM1892.53 513.463H1909.05C1914.84 513.463 1919.11 512.366 1921.84 510.17C1924.61 507.975 1926 504.917 1926 500.994C1926 498.152 1925.33 495.705 1924 493.653C1922.67 491.566 1920.78 489.965 1918.33 488.849C1915.88 487.698 1912.95 487.122 1909.53 487.122H1892.53V513.463ZM1892.53 469.903H1907.32C1910.24 469.903 1912.83 469.418 1915.09 468.446C1917.36 467.474 1919.12 466.071 1920.38 464.236C1921.68 462.401 1922.33 460.187 1922.33 457.597C1922.33 453.89 1921.01 450.975 1918.39 448.852C1915.76 446.729 1912.21 445.668 1907.75 445.668H1892.53V469.903ZM2071.09 479.727C2071.09 491.89 2068.75 502.2 2064.07 510.656C2059.39 519.113 2053.06 525.536 2045.07 529.926C2037.12 534.316 2028.19 536.511 2018.3 536.511C2008.37 536.511 1999.42 534.298 1991.47 529.872C1983.52 525.446 1977.2 519.023 1972.52 510.602C1967.88 502.146 1965.56 491.854 1965.56 479.727C1965.56 467.564 1967.88 457.255 1972.52 448.798C1977.2 440.342 1983.52 433.919 1991.47 429.528C1999.42 425.138 2008.37 422.943 2018.3 422.943C2028.19 422.943 2037.12 425.138 2045.07 429.528C2053.06 433.919 2059.39 440.342 2064.07 448.798C2068.75 457.255 2071.09 467.564 2071.09 479.727ZM2043.77 479.727C2043.77 472.53 2042.75 466.449 2040.7 461.483C2038.68 456.517 2035.77 452.757 2031.95 450.202C2028.18 447.647 2023.62 446.369 2018.3 446.369C2013.01 446.369 2008.46 447.647 2004.64 450.202C2000.83 452.757 1997.89 456.517 1995.84 461.483C1993.83 466.449 1992.82 472.53 1992.82 479.727C1992.82 486.924 1993.83 493.006 1995.84 497.972C1997.89 502.937 2000.83 506.698 2004.64 509.253C2008.46 511.808 2013.01 513.085 2018.3 513.085C2023.62 513.085 2028.18 511.808 2031.95 509.253C2035.77 506.698 2038.68 502.937 2040.7 497.972C2042.75 493.006 2043.77 486.924 2043.77 479.727ZM2104.07 535H2075.35L2112.65 424.455H2148.22L2185.52 535H2156.8L2130.84 452.307H2129.98L2104.07 535ZM2100.24 491.494H2160.26V511.79H2100.24V491.494ZM2197.42 535V424.455H2243.09C2251.36 424.455 2258.51 425.948 2264.51 428.935C2270.56 431.885 2275.22 436.132 2278.5 441.673C2281.77 447.179 2283.41 453.71 2283.41 461.267C2283.41 468.932 2281.73 475.445 2278.39 480.807C2275.04 486.133 2270.29 490.199 2264.14 493.006C2257.98 495.777 2250.7 497.162 2242.28 497.162H2213.4V476.111H2237.31C2241.34 476.111 2244.71 475.589 2247.4 474.545C2250.14 473.466 2252.21 471.847 2253.61 469.688C2255.01 467.492 2255.72 464.686 2255.72 461.267C2255.72 457.848 2255.01 455.024 2253.61 452.793C2252.21 450.526 2250.14 448.834 2247.4 447.719C2244.67 446.567 2241.3 445.991 2237.31 445.991H2224.14V535H2197.42ZM2259.66 484.477L2287.19 535H2258.04L2231.05 484.477H2259.66ZM2338.92 535H2298.06V424.455H2338.87C2350.13 424.455 2359.83 426.668 2367.96 431.094C2376.13 435.484 2382.43 441.817 2386.85 450.094C2391.28 458.334 2393.49 468.194 2393.49 479.673C2393.49 491.188 2391.28 501.084 2386.85 509.361C2382.46 517.637 2376.18 523.989 2368.02 528.415C2359.85 532.805 2350.15 535 2338.92 535ZM2324.78 512.222H2337.9C2344.09 512.222 2349.32 511.178 2353.6 509.091C2357.92 506.968 2361.18 503.531 2363.37 498.781C2365.61 493.995 2366.72 487.626 2366.72 479.673C2366.72 471.721 2365.61 465.387 2363.37 460.673C2361.14 455.923 2357.85 452.505 2353.5 450.418C2349.18 448.295 2343.85 447.233 2337.52 447.233H2324.78V512.222Z" fill="#E6F1FC"/>
<path d="M-1144.63 711V600.455H-1117.91V644.824H-1074.36V600.455H-1047.69V711H-1074.36V666.577H-1117.91V711H-1144.63ZM-1007.02 711H-1035.73L-998.436 600.455H-962.865L-925.567 711H-954.283L-980.246 628.307H-981.109L-1007.02 711ZM-1010.85 667.494H-950.828V687.79H-1010.85V667.494ZM-913.665 711V600.455H-868C-859.723 600.455 -852.58 602.074 -846.571 605.312C-840.526 608.515 -835.866 612.995 -832.591 618.753C-829.316 624.474 -827.679 631.132 -827.679 638.724C-827.679 646.353 -829.352 653.028 -832.699 658.75C-836.009 664.436 -840.741 668.844 -846.895 671.974C-853.048 675.105 -860.353 676.67 -868.81 676.67H-896.986V655.619H-873.776C-869.745 655.619 -866.381 654.918 -863.682 653.514C-860.947 652.111 -858.878 650.15 -857.474 647.631C-856.071 645.076 -855.369 642.107 -855.369 638.724C-855.369 635.306 -856.071 632.355 -857.474 629.872C-858.878 627.353 -860.947 625.41 -863.682 624.043C-866.417 622.675 -869.781 621.991 -873.776 621.991H-886.946V711H-913.665ZM-814.509 711V600.455H-768.844C-760.567 600.455 -753.424 602.074 -747.415 605.312C-741.369 608.515 -736.709 612.995 -733.435 618.753C-730.16 624.474 -728.523 631.132 -728.523 638.724C-728.523 646.353 -730.196 653.028 -733.543 658.75C-736.853 664.436 -741.585 668.844 -747.739 671.974C-753.892 675.105 -761.197 676.67 -769.653 676.67H-797.83V655.619H-774.619C-770.589 655.619 -767.224 654.918 -764.526 653.514C-761.791 652.111 -759.722 650.15 -758.318 647.631C-756.915 645.076 -756.213 642.107 -756.213 638.724C-756.213 635.306 -756.915 632.355 -758.318 629.872C-759.722 627.353 -761.791 625.41 -764.526 624.043C-767.26 622.675 -770.625 621.991 -774.619 621.991H-787.79V711H-814.509ZM-720.858 600.455H-691.009L-667.636 646.713H-666.665L-643.293 600.455H-613.443L-653.872 674.08V711H-680.429V674.08L-720.858 600.455ZM-528.726 711H-569.587V600.455H-528.78C-517.517 600.455 -507.819 602.668 -499.686 607.094C-491.518 611.484 -485.22 617.817 -480.794 626.094C-476.368 634.334 -474.155 644.194 -474.155 655.673C-474.155 667.188 -476.368 677.084 -480.794 685.361C-485.184 693.637 -491.464 699.989 -499.632 704.415C-507.801 708.805 -517.499 711 -528.726 711ZM-542.868 688.222H-529.751C-523.562 688.222 -518.326 687.178 -514.044 685.091C-509.726 682.968 -506.469 679.531 -504.274 674.781C-502.043 669.995 -500.928 663.626 -500.928 655.673C-500.928 647.721 -502.043 641.387 -504.274 636.673C-506.505 631.923 -509.798 628.505 -514.152 626.418C-518.47 624.295 -523.796 623.233 -530.129 623.233H-542.868V688.222ZM-441.175 711H-469.891L-432.592 600.455H-397.021L-359.723 711H-388.439L-414.402 628.307H-415.266L-441.175 711ZM-445.007 667.494H-384.984V687.79H-445.007V667.494ZM-291.482 633.597C-291.842 629.638 -293.443 626.562 -296.286 624.366C-299.093 622.135 -303.105 621.02 -308.323 621.02C-311.778 621.02 -314.656 621.47 -316.96 622.369C-319.263 623.269 -320.99 624.51 -322.141 626.094C-323.293 627.641 -323.887 629.422 -323.923 631.438C-323.995 633.093 -323.671 634.55 -322.951 635.81C-322.195 637.069 -321.116 638.185 -319.712 639.156C-318.273 640.092 -316.546 640.92 -314.531 641.639C-312.515 642.359 -310.248 642.989 -307.729 643.528L-298.229 645.688C-292.76 646.875 -287.938 648.458 -283.763 650.438C-279.553 652.417 -276.027 654.774 -273.184 657.509C-270.305 660.243 -268.128 663.392 -266.653 666.955C-265.177 670.517 -264.422 674.511 -264.386 678.938C-264.422 685.919 -266.185 691.91 -269.675 696.912C-273.166 701.914 -278.186 705.746 -284.735 708.409C-291.248 711.072 -299.111 712.403 -308.323 712.403C-317.571 712.403 -325.632 711.018 -332.505 708.247C-339.378 705.476 -344.722 701.266 -348.536 695.616C-352.351 689.967 -354.312 682.824 -354.42 674.188H-328.835C-328.619 677.75 -327.665 680.719 -325.974 683.094C-324.282 685.469 -321.961 687.268 -319.011 688.491C-316.024 689.715 -312.569 690.327 -308.647 690.327C-305.049 690.327 -301.99 689.841 -299.471 688.869C-296.916 687.898 -294.955 686.548 -293.587 684.821C-292.22 683.094 -291.518 681.115 -291.482 678.884C-291.518 676.796 -292.166 675.015 -293.425 673.54C-294.685 672.028 -296.628 670.733 -299.255 669.653C-301.846 668.538 -305.156 667.512 -309.187 666.577L-320.738 663.878C-330.31 661.683 -337.849 658.138 -343.354 653.244C-348.86 648.314 -351.595 641.657 -351.559 633.273C-351.595 626.436 -349.76 620.444 -346.053 615.298C-342.347 610.152 -337.219 606.14 -330.67 603.261C-324.121 600.383 -316.654 598.943 -308.269 598.943C-299.705 598.943 -292.274 600.401 -285.977 603.315C-279.643 606.194 -274.731 610.242 -271.241 615.46C-267.75 620.678 -265.969 626.723 -265.897 633.597H-291.482ZM-250.891 711V600.455H-224.173V644.824H-180.613V600.455H-153.948V711H-180.613V666.577H-224.173V711H-250.891ZM-137.188 711V600.455H-91.0916C-82.8151 600.455 -75.888 601.624 -70.3104 603.963C-64.6967 606.302 -60.4865 609.577 -57.6797 613.787C-54.8369 617.997 -53.4155 622.873 -53.4155 628.415C-53.4155 632.625 -54.2971 636.385 -56.0604 639.696C-57.8236 642.971 -60.2526 645.687 -63.3473 647.847C-66.442 650.006 -70.0225 651.517 -74.0888 652.381V653.46C-69.6267 653.676 -65.5064 654.882 -61.728 657.077C-57.9136 659.272 -54.8549 662.33 -52.5518 666.253C-50.2488 670.139 -49.0973 674.745 -49.0973 680.071C-49.0973 686.009 -50.6087 691.316 -53.6314 695.994C-56.6541 700.636 -61.0263 704.307 -66.7479 707.006C-72.4695 709.669 -79.4145 711 -87.5831 711H-137.188ZM-110.469 689.463H-93.9524C-88.1589 689.463 -83.8946 688.366 -81.1598 686.17C-78.389 683.975 -77.0035 680.917 -77.0035 676.994C-77.0035 674.152 -77.6693 671.705 -79.0007 669.653C-80.3321 667.566 -82.2214 665.965 -84.6683 664.849C-87.1153 663.698 -90.0481 663.122 -93.4666 663.122H-110.469V689.463ZM-110.469 645.903H-95.6797C-92.7649 645.903 -90.174 645.418 -87.907 644.446C-85.6399 643.474 -83.8767 642.071 -82.6172 640.236C-81.3217 638.401 -80.674 636.187 -80.674 633.597C-80.674 629.89 -81.9875 626.975 -84.6143 624.852C-87.2412 622.729 -90.7857 621.668 -95.2479 621.668H-110.469V645.903ZM68.0874 655.727C68.0874 667.89 65.7483 678.2 61.0703 686.656C56.3923 695.113 50.059 701.536 42.0703 705.926C34.1177 710.316 25.1934 712.511 15.2976 712.511C5.36577 712.511 -3.57647 710.298 -11.5291 705.872C-19.4818 701.446 -25.7971 695.023 -30.4751 686.602C-35.1172 678.146 -37.4382 667.854 -37.4382 655.727C-37.4382 643.564 -35.1172 633.255 -30.4751 624.798C-25.7971 616.342 -19.4818 609.919 -11.5291 605.528C-3.57647 601.138 5.36577 598.943 15.2976 598.943C25.1934 598.943 34.1177 601.138 42.0703 605.528C50.059 609.919 56.3923 616.342 61.0703 624.798C65.7483 633.255 68.0874 643.564 68.0874 655.727ZM40.7749 655.727C40.7749 648.53 39.7493 642.449 37.6982 637.483C35.683 632.517 32.7682 628.757 28.9538 626.202C25.1754 623.647 20.6233 622.369 15.2976 622.369C10.0078 622.369 5.45573 623.647 1.64134 626.202C-2.17306 628.757 -5.10582 632.517 -7.15696 637.483C-9.17211 642.449 -10.1797 648.53 -10.1797 655.727C-10.1797 662.924 -9.17211 669.006 -7.15696 673.972C-5.10582 678.937 -2.17306 682.698 1.64134 685.253C5.45573 687.808 10.0078 689.085 15.2976 689.085C20.6233 689.085 25.1754 687.808 28.9538 685.253C32.7682 682.698 35.683 678.937 37.6982 673.972C39.7493 669.006 40.7749 662.924 40.7749 655.727ZM101.067 711H72.3516L109.65 600.455H145.221L182.519 711H153.803L127.84 628.307H126.977L101.067 711ZM97.2351 667.494H157.258V687.79H97.2351V667.494ZM194.421 711V600.455H240.086C248.362 600.455 255.505 601.948 261.515 604.935C267.56 607.885 272.22 612.132 275.495 617.673C278.77 623.179 280.407 629.71 280.407 637.267C280.407 644.932 278.734 651.445 275.387 656.807C272.04 662.133 267.29 666.199 261.137 669.006C254.984 671.777 247.697 673.162 239.276 673.162H210.398V652.111H234.31C238.341 652.111 241.705 651.589 244.404 650.545C247.139 649.466 249.208 647.847 250.612 645.688C252.015 643.492 252.717 640.686 252.717 637.267C252.717 633.848 252.015 631.024 250.612 628.793C249.208 626.526 247.139 624.834 244.404 623.719C241.669 622.567 238.305 621.991 234.31 621.991H221.14V711H194.421ZM256.657 660.477L284.185 711H255.038L228.049 660.477H256.657ZM335.923 711H295.062V600.455H335.869C347.132 600.455 356.83 602.668 364.962 607.094C373.131 611.484 379.428 617.817 383.854 626.094C388.281 634.334 390.494 644.194 390.494 655.673C390.494 667.188 388.281 677.084 383.854 685.361C379.464 693.637 373.185 699.989 365.016 704.415C356.848 708.805 347.15 711 335.923 711ZM321.781 688.222H334.897C341.086 688.222 346.322 687.178 350.604 685.091C354.923 682.968 358.179 679.531 360.374 674.781C362.605 669.995 363.721 663.626 363.721 655.673C363.721 647.721 362.605 641.387 360.374 636.673C358.143 631.923 354.851 628.505 350.496 626.418C346.178 624.295 340.853 623.233 334.519 623.233H321.781V688.222Z" fill="#E6F1FC"/>
<path d="M478.366 711V600.455H505.085V644.824H548.645V600.455H575.31V711H548.645V666.577H505.085V711H478.366ZM615.982 711H587.266L624.564 600.455H660.135L697.433 711H668.717L642.754 628.307H641.891L615.982 711ZM612.149 667.494H672.172V687.79H612.149V667.494ZM709.335 711V600.455H755C763.277 600.455 770.42 602.074 776.429 605.312C782.474 608.515 787.134 612.995 790.409 618.753C793.684 624.474 795.321 631.132 795.321 638.724C795.321 646.353 793.648 653.028 790.301 658.75C786.991 664.436 782.259 668.844 776.105 671.974C769.952 675.105 762.647 676.67 754.19 676.67H726.014V655.619H749.224C753.255 655.619 756.619 654.918 759.318 653.514C762.053 652.111 764.122 650.15 765.526 647.631C766.929 645.076 767.631 642.107 767.631 638.724C767.631 635.306 766.929 632.355 765.526 629.872C764.122 627.353 762.053 625.41 759.318 624.043C756.583 622.675 753.219 621.991 749.224 621.991H736.054V711H709.335ZM808.491 711V600.455H854.156C862.433 600.455 869.576 602.074 875.585 605.312C881.631 608.515 886.291 612.995 889.565 618.753C892.84 624.474 894.477 631.132 894.477 638.724C894.477 646.353 892.804 653.028 889.457 658.75C886.147 664.436 881.415 668.844 875.261 671.974C869.108 675.105 861.803 676.67 853.347 676.67H825.17V655.619H848.381C852.411 655.619 855.776 654.918 858.474 653.514C861.209 652.111 863.278 650.15 864.682 647.631C866.085 645.076 866.787 642.107 866.787 638.724C866.787 635.306 866.085 632.355 864.682 629.872C863.278 627.353 861.209 625.41 858.474 624.043C855.74 622.675 852.375 621.991 848.381 621.991H835.21V711H808.491ZM902.142 600.455H931.991L955.364 646.713H956.335L979.707 600.455H1009.56L969.128 674.08V711H942.571V674.08L902.142 600.455ZM1094.27 711H1053.41V600.455H1094.22C1105.48 600.455 1115.18 602.668 1123.31 607.094C1131.48 611.484 1137.78 617.817 1142.21 626.094C1146.63 634.334 1148.85 644.194 1148.85 655.673C1148.85 667.188 1146.63 677.084 1142.21 685.361C1137.82 693.637 1131.54 699.989 1123.37 704.415C1115.2 708.805 1105.5 711 1094.27 711ZM1080.13 688.222H1093.25C1099.44 688.222 1104.67 687.178 1108.96 685.091C1113.27 682.968 1116.53 679.531 1118.73 674.781C1120.96 669.995 1122.07 663.626 1122.07 655.673C1122.07 647.721 1120.96 641.387 1118.73 636.673C1116.49 631.923 1113.2 628.505 1108.85 626.418C1104.53 624.295 1099.2 623.233 1092.87 623.233H1080.13V688.222ZM1181.83 711H1153.11L1190.41 600.455H1225.98L1263.28 711H1234.56L1208.6 628.307H1207.73L1181.83 711ZM1177.99 667.494H1238.02V687.79H1177.99V667.494ZM1331.52 633.597C1331.16 629.638 1329.56 626.562 1326.71 624.366C1323.91 622.135 1319.89 621.02 1314.68 621.02C1311.22 621.02 1308.34 621.47 1306.04 622.369C1303.74 623.269 1302.01 624.51 1300.86 626.094C1299.71 627.641 1299.11 629.422 1299.08 631.438C1299.01 633.093 1299.33 634.55 1300.05 635.81C1300.8 637.069 1301.88 638.185 1303.29 639.156C1304.73 640.092 1306.45 640.92 1308.47 641.639C1310.48 642.359 1312.75 642.989 1315.27 643.528L1324.77 645.688C1330.24 646.875 1335.06 648.458 1339.24 650.438C1343.45 652.417 1346.97 654.774 1349.82 657.509C1352.69 660.243 1354.87 663.392 1356.35 666.955C1357.82 670.517 1358.58 674.511 1358.61 678.938C1358.58 685.919 1356.82 691.91 1353.32 696.912C1349.83 701.914 1344.81 705.746 1338.26 708.409C1331.75 711.072 1323.89 712.403 1314.68 712.403C1305.43 712.403 1297.37 711.018 1290.5 708.247C1283.62 705.476 1278.28 701.266 1274.46 695.616C1270.65 689.967 1268.69 682.824 1268.58 674.188H1294.17C1294.38 677.75 1295.33 680.719 1297.03 683.094C1298.72 685.469 1301.04 687.268 1303.99 688.491C1306.98 689.715 1310.43 690.327 1314.35 690.327C1317.95 690.327 1321.01 689.841 1323.53 688.869C1326.08 687.898 1328.05 686.548 1329.41 684.821C1330.78 683.094 1331.48 681.115 1331.52 678.884C1331.48 676.796 1330.83 675.015 1329.57 673.54C1328.32 672.028 1326.37 670.733 1323.75 669.653C1321.15 668.538 1317.84 667.512 1313.81 666.577L1302.26 663.878C1292.69 661.683 1285.15 658.138 1279.65 653.244C1274.14 648.314 1271.41 641.657 1271.44 633.273C1271.41 626.436 1273.24 620.444 1276.95 615.298C1280.65 610.152 1285.78 606.14 1292.33 603.261C1298.88 600.383 1306.35 598.943 1314.73 598.943C1323.3 598.943 1330.73 600.401 1337.02 603.315C1343.36 606.194 1348.27 610.242 1351.76 615.46C1355.25 620.678 1357.03 626.723 1357.1 633.597H1331.52ZM1372.11 711V600.455H1398.83V644.824H1442.39V600.455H1469.05V711H1442.39V666.577H1398.83V711H1372.11ZM1485.81 711V600.455H1531.91C1540.18 600.455 1547.11 601.624 1552.69 603.963C1558.3 606.302 1562.51 609.577 1565.32 613.787C1568.16 617.997 1569.58 622.873 1569.58 628.415C1569.58 632.625 1568.7 636.385 1566.94 639.696C1565.18 642.971 1562.75 645.687 1559.65 647.847C1556.56 650.006 1552.98 651.517 1548.91 652.381V653.46C1553.37 653.676 1557.49 654.882 1561.27 657.077C1565.09 659.272 1568.15 662.33 1570.45 666.253C1572.75 670.139 1573.9 674.745 1573.9 680.071C1573.9 686.009 1572.39 691.316 1569.37 695.994C1566.35 700.636 1561.97 704.307 1556.25 707.006C1550.53 709.669 1543.59 711 1535.42 711H1485.81ZM1512.53 689.463H1529.05C1534.84 689.463 1539.11 688.366 1541.84 686.17C1544.61 683.975 1546 680.917 1546 676.994C1546 674.152 1545.33 671.705 1544 669.653C1542.67 667.566 1540.78 665.965 1538.33 664.849C1535.88 663.698 1532.95 663.122 1529.53 663.122H1512.53V689.463ZM1512.53 645.903H1527.32C1530.24 645.903 1532.83 645.418 1535.09 644.446C1537.36 643.474 1539.12 642.071 1540.38 640.236C1541.68 638.401 1542.33 636.187 1542.33 633.597C1542.33 629.89 1541.01 626.975 1538.39 624.852C1535.76 622.729 1532.21 621.668 1527.75 621.668H1512.53V645.903ZM1691.09 655.727C1691.09 667.89 1688.75 678.2 1684.07 686.656C1679.39 695.113 1673.06 701.536 1665.07 705.926C1657.12 710.316 1648.19 712.511 1638.3 712.511C1628.37 712.511 1619.42 710.298 1611.47 705.872C1603.52 701.446 1597.2 695.023 1592.52 686.602C1587.88 678.146 1585.56 667.854 1585.56 655.727C1585.56 643.564 1587.88 633.255 1592.52 624.798C1597.2 616.342 1603.52 609.919 1611.47 605.528C1619.42 601.138 1628.37 598.943 1638.3 598.943C1648.19 598.943 1657.12 601.138 1665.07 605.528C1673.06 609.919 1679.39 616.342 1684.07 624.798C1688.75 633.255 1691.09 643.564 1691.09 655.727ZM1663.77 655.727C1663.77 648.53 1662.75 642.449 1660.7 637.483C1658.68 632.517 1655.77 628.757 1651.95 626.202C1648.18 623.647 1643.62 622.369 1638.3 622.369C1633.01 622.369 1628.46 623.647 1624.64 626.202C1620.83 628.757 1617.89 632.517 1615.84 637.483C1613.83 642.449 1612.82 648.53 1612.82 655.727C1612.82 662.924 1613.83 669.006 1615.84 673.972C1617.89 678.937 1620.83 682.698 1624.64 685.253C1628.46 687.808 1633.01 689.085 1638.3 689.085C1643.62 689.085 1648.18 687.808 1651.95 685.253C1655.77 682.698 1658.68 678.937 1660.7 673.972C1662.75 669.006 1663.77 662.924 1663.77 655.727ZM1724.07 711H1695.35L1732.65 600.455H1768.22L1805.52 711H1776.8L1750.84 628.307H1749.98L1724.07 711ZM1720.24 667.494H1780.26V687.79H1720.24V667.494ZM1817.42 711V600.455H1863.09C1871.36 600.455 1878.51 601.948 1884.51 604.935C1890.56 607.885 1895.22 612.132 1898.5 617.673C1901.77 623.179 1903.41 629.71 1903.41 637.267C1903.41 644.932 1901.73 651.445 1898.39 656.807C1895.04 662.133 1890.29 666.199 1884.14 669.006C1877.98 671.777 1870.7 673.162 1862.28 673.162H1833.4V652.111H1857.31C1861.34 652.111 1864.71 651.589 1867.4 650.545C1870.14 649.466 1872.21 647.847 1873.61 645.688C1875.01 643.492 1875.72 640.686 1875.72 637.267C1875.72 633.848 1875.01 631.024 1873.61 628.793C1872.21 626.526 1870.14 624.834 1867.4 623.719C1864.67 622.567 1861.3 621.991 1857.31 621.991H1844.14V711H1817.42ZM1879.66 660.477L1907.19 711H1878.04L1851.05 660.477H1879.66ZM1958.92 711H1918.06V600.455H1958.87C1970.13 600.455 1979.83 602.668 1987.96 607.094C1996.13 611.484 2002.43 617.817 2006.85 626.094C2011.28 634.334 2013.49 644.194 2013.49 655.673C2013.49 667.188 2011.28 677.084 2006.85 685.361C2002.46 693.637 1996.18 699.989 1988.02 704.415C1979.85 708.805 1970.15 711 1958.92 711ZM1944.78 688.222H1957.9C1964.09 688.222 1969.32 687.178 1973.6 685.091C1977.92 682.968 1981.18 679.531 1983.37 674.781C1985.61 669.995 1986.72 663.626 1986.72 655.673C1986.72 647.721 1985.61 641.387 1983.37 636.673C1981.14 631.923 1977.85 628.505 1973.5 626.418C1969.18 624.295 1963.85 623.233 1957.52 623.233H1944.78V688.222Z" fill="#E6F1FC"/>
<path d="M-764.634 923V812.455H-737.915V856.824H-694.355V812.455H-667.69V923H-694.355V878.577H-737.915V923H-764.634ZM-627.018 923H-655.734L-618.436 812.455H-582.865L-545.567 923H-574.283L-600.246 840.307H-601.109L-627.018 923ZM-630.851 879.494H-570.828V899.79H-630.851V879.494ZM-533.665 923V812.455H-488C-479.723 812.455 -472.58 814.074 -466.571 817.312C-460.526 820.515 -455.866 824.995 -452.591 830.753C-449.316 836.474 -447.679 843.132 -447.679 850.724C-447.679 858.353 -449.352 865.028 -452.699 870.75C-456.009 876.436 -460.741 880.844 -466.895 883.974C-473.048 887.105 -480.353 888.67 -488.81 888.67H-516.986V867.619H-493.776C-489.745 867.619 -486.381 866.918 -483.682 865.514C-480.947 864.111 -478.878 862.15 -477.474 859.631C-476.071 857.076 -475.369 854.107 -475.369 850.724C-475.369 847.306 -476.071 844.355 -477.474 841.872C-478.878 839.353 -480.947 837.41 -483.682 836.043C-486.417 834.675 -489.781 833.991 -493.776 833.991H-506.946V923H-533.665ZM-434.509 923V812.455H-388.844C-380.567 812.455 -373.424 814.074 -367.415 817.312C-361.369 820.515 -356.709 824.995 -353.435 830.753C-350.16 836.474 -348.523 843.132 -348.523 850.724C-348.523 858.353 -350.196 865.028 -353.543 870.75C-356.853 876.436 -361.585 880.844 -367.739 883.974C-373.892 887.105 -381.197 888.67 -389.653 888.67H-417.83V867.619H-394.619C-390.589 867.619 -387.224 866.918 -384.526 865.514C-381.791 864.111 -379.722 862.15 -378.318 859.631C-376.915 857.076 -376.213 854.107 -376.213 850.724C-376.213 847.306 -376.915 844.355 -378.318 841.872C-379.722 839.353 -381.791 837.41 -384.526 836.043C-387.26 834.675 -390.625 833.991 -394.619 833.991H-407.79V923H-434.509ZM-340.858 812.455H-311.009L-287.636 858.713H-286.665L-263.293 812.455H-233.443L-273.872 886.08V923H-300.429V886.08L-340.858 812.455ZM-148.726 923H-189.587V812.455H-148.78C-137.517 812.455 -127.819 814.668 -119.686 819.094C-111.518 823.484 -105.22 829.817 -100.794 838.094C-96.3679 846.334 -94.1548 856.194 -94.1548 867.673C-94.1548 879.188 -96.3679 889.084 -100.794 897.361C-105.184 905.637 -111.464 911.989 -119.632 916.415C-127.801 920.805 -137.499 923 -148.726 923ZM-162.868 900.222H-149.751C-143.562 900.222 -138.326 899.178 -134.044 897.091C-129.726 894.968 -126.469 891.531 -124.274 886.781C-122.043 881.995 -120.928 875.626 -120.928 867.673C-120.928 859.721 -122.043 853.387 -124.274 848.673C-126.505 843.923 -129.798 840.505 -134.152 838.418C-138.47 836.295 -143.796 835.233 -150.129 835.233H-162.868V900.222ZM-61.1747 923H-89.8906L-52.5923 812.455H-17.0213L20.277 923H-8.43892L-34.402 840.307H-35.2656L-61.1747 923ZM-65.0071 879.494H-4.98438V899.79H-65.0071V879.494ZM88.5178 845.597C88.1579 841.638 86.5566 838.562 83.7138 836.366C80.907 834.135 76.8947 833.02 71.6768 833.02C68.2223 833.02 65.3435 833.47 63.0405 834.369C60.7375 835.269 59.0102 836.51 57.8587 838.094C56.7072 839.641 56.1134 841.422 56.0774 843.438C56.0054 845.093 56.3293 846.55 57.049 847.81C57.8047 849.069 58.8842 850.185 60.2876 851.156C61.727 852.092 63.4543 852.92 65.4695 853.639C67.4846 854.359 69.7517 854.989 72.2706 855.528L81.7706 857.688C87.2403 858.875 92.0623 860.458 96.2365 862.438C100.447 864.417 103.973 866.774 106.816 869.509C109.695 872.243 111.872 875.392 113.347 878.955C114.823 882.517 115.578 886.511 115.614 890.938C115.578 897.919 113.815 903.91 110.325 908.912C106.834 913.914 101.814 917.746 95.2649 920.409C88.7517 923.072 80.889 924.403 71.6768 924.403C62.4287 924.403 54.3681 923.018 47.495 920.247C40.6219 917.476 35.2782 913.266 31.4638 907.616C27.6494 901.967 25.6882 894.824 25.5803 886.188H51.1655C51.3814 889.75 52.335 892.719 54.0263 895.094C55.7176 897.469 58.0386 899.268 60.9893 900.491C63.9761 901.715 67.4306 902.327 71.353 902.327C74.9515 902.327 78.0102 901.841 80.5291 900.869C83.084 899.898 85.0452 898.548 86.4126 896.821C87.7801 895.094 88.4818 893.115 88.5178 890.884C88.4818 888.796 87.834 887.015 86.5746 885.54C85.3151 884.028 83.3719 882.733 80.745 881.653C78.1541 880.538 74.8435 879.512 70.8132 878.577L59.2621 875.878C49.6901 873.683 42.1513 870.138 36.6456 865.244C31.1399 860.314 28.4051 853.657 28.4411 845.273C28.4051 838.436 30.2403 832.444 33.9467 827.298C37.6532 822.152 42.781 818.14 49.3303 815.261C55.8795 812.383 63.3464 810.943 71.7308 810.943C80.2952 810.943 87.7261 812.401 94.0234 815.315C100.357 818.194 105.269 822.242 108.759 827.46C112.25 832.678 114.031 838.723 114.103 845.597H88.5178ZM129.109 923V812.455H155.827V856.824H199.387V812.455H226.052V923H199.387V878.577H155.827V923H129.109ZM242.812 923V812.455H288.908C297.185 812.455 304.112 813.624 309.69 815.963C315.303 818.302 319.513 821.577 322.32 825.787C325.163 829.997 326.585 834.873 326.585 840.415C326.585 844.625 325.703 848.385 323.94 851.696C322.176 854.971 319.747 857.687 316.653 859.847C313.558 862.006 309.978 863.517 305.911 864.381V865.46C310.373 865.676 314.494 866.882 318.272 869.077C322.086 871.272 325.145 874.33 327.448 878.253C329.751 882.139 330.903 886.745 330.903 892.071C330.903 898.009 329.391 903.316 326.369 907.994C323.346 912.636 318.974 916.307 313.252 919.006C307.531 921.669 300.585 923 292.417 923H242.812ZM269.531 901.463H286.048C291.841 901.463 296.105 900.366 298.84 898.17C301.611 895.975 302.996 892.917 302.996 888.994C302.996 886.152 302.331 883.705 300.999 881.653C299.668 879.566 297.779 877.965 295.332 876.849C292.885 875.698 289.952 875.122 286.533 875.122H269.531V901.463ZM269.531 857.903H284.32C287.235 857.903 289.826 857.418 292.093 856.446C294.36 855.474 296.123 854.071 297.383 852.236C298.678 850.401 299.326 848.187 299.326 845.597C299.326 841.89 298.013 838.975 295.386 836.852C292.759 834.729 289.214 833.668 284.752 833.668H269.531V857.903ZM448.087 867.727C448.087 879.89 445.748 890.2 441.07 898.656C436.392 907.113 430.059 913.536 422.07 917.926C414.118 922.316 405.193 924.511 395.298 924.511C385.366 924.511 376.424 922.298 368.471 917.872C360.518 913.446 354.203 907.023 349.525 898.602C344.883 890.146 342.562 879.854 342.562 867.727C342.562 855.564 344.883 845.255 349.525 836.798C354.203 828.342 360.518 821.919 368.471 817.528C376.424 813.138 385.366 810.943 395.298 810.943C405.193 810.943 414.118 813.138 422.07 817.528C430.059 821.919 436.392 828.342 441.07 836.798C445.748 845.255 448.087 855.564 448.087 867.727ZM420.775 867.727C420.775 860.53 419.749 854.449 417.698 849.483C415.683 844.517 412.768 840.757 408.954 838.202C405.175 835.647 400.623 834.369 395.298 834.369C390.008 834.369 385.456 835.647 381.641 838.202C377.827 840.757 374.894 844.517 372.843 849.483C370.828 854.449 369.82 860.53 369.82 867.727C369.82 874.924 370.828 881.006 372.843 885.972C374.894 890.937 377.827 894.698 381.641 897.253C385.456 899.808 390.008 901.085 395.298 901.085C400.623 901.085 405.175 899.808 408.954 897.253C412.768 894.698 415.683 890.937 417.698 885.972C419.749 881.006 420.775 874.924 420.775 867.727ZM481.067 923H452.352L489.65 812.455H525.221L562.519 923H533.803L507.84 840.307H506.977L481.067 923ZM477.235 879.494H537.258V899.79H477.235V879.494ZM574.421 923V812.455H620.086C628.362 812.455 635.505 813.948 641.515 816.935C647.56 819.885 652.22 824.132 655.495 829.673C658.77 835.179 660.407 841.71 660.407 849.267C660.407 856.932 658.734 863.445 655.387 868.807C652.04 874.133 647.29 878.199 641.137 881.006C634.984 883.777 627.697 885.162 619.276 885.162H590.398V864.111H614.31C618.341 864.111 621.705 863.589 624.404 862.545C627.139 861.466 629.208 859.847 630.612 857.688C632.015 855.492 632.717 852.686 632.717 849.267C632.717 845.848 632.015 843.024 630.612 840.793C629.208 838.526 627.139 836.834 624.404 835.719C621.669 834.567 618.305 833.991 614.31 833.991H601.14V923H574.421ZM636.657 872.477L664.185 923H635.038L608.049 872.477H636.657ZM715.923 923H675.062V812.455H715.869C727.132 812.455 736.83 814.668 744.962 819.094C753.131 823.484 759.428 829.817 763.854 838.094C768.281 846.334 770.494 856.194 770.494 867.673C770.494 879.188 768.281 889.084 763.854 897.361C759.464 905.637 753.185 911.989 745.016 916.415C736.848 920.805 727.15 923 715.923 923ZM701.781 900.222H714.897C721.086 900.222 726.322 899.178 730.604 897.091C734.923 894.968 738.179 891.531 740.374 886.781C742.605 881.995 743.721 875.626 743.721 867.673C743.721 859.721 742.605 853.387 740.374 848.673C738.143 843.923 734.851 840.505 730.496 838.418C726.178 836.295 720.853 835.233 714.519 835.233H701.781V900.222Z" fill="#E6F1FC"/>
<path d="M858.366 923V812.455H885.085V856.824H928.645V812.455H955.31V923H928.645V878.577H885.085V923H858.366ZM995.982 923H967.266L1004.56 812.455H1040.13L1077.43 923H1048.72L1022.75 840.307H1021.89L995.982 923ZM992.149 879.494H1052.17V899.79H992.149V879.494ZM1089.34 923V812.455H1135C1143.28 812.455 1150.42 814.074 1156.43 817.312C1162.47 820.515 1167.13 824.995 1170.41 830.753C1173.68 836.474 1175.32 843.132 1175.32 850.724C1175.32 858.353 1173.65 865.028 1170.3 870.75C1166.99 876.436 1162.26 880.844 1156.11 883.974C1149.95 887.105 1142.65 888.67 1134.19 888.67H1106.01V867.619H1129.22C1133.25 867.619 1136.62 866.918 1139.32 865.514C1142.05 864.111 1144.12 862.15 1145.53 859.631C1146.93 857.076 1147.63 854.107 1147.63 850.724C1147.63 847.306 1146.93 844.355 1145.53 841.872C1144.12 839.353 1142.05 837.41 1139.32 836.043C1136.58 834.675 1133.22 833.991 1129.22 833.991H1116.05V923H1089.34ZM1188.49 923V812.455H1234.16C1242.43 812.455 1249.58 814.074 1255.59 817.312C1261.63 820.515 1266.29 824.995 1269.57 830.753C1272.84 836.474 1274.48 843.132 1274.48 850.724C1274.48 858.353 1272.8 865.028 1269.46 870.75C1266.15 876.436 1261.41 880.844 1255.26 883.974C1249.11 887.105 1241.8 888.67 1233.35 888.67H1205.17V867.619H1228.38C1232.41 867.619 1235.78 866.918 1238.47 865.514C1241.21 864.111 1243.28 862.15 1244.68 859.631C1246.09 857.076 1246.79 854.107 1246.79 850.724C1246.79 847.306 1246.09 844.355 1244.68 841.872C1243.28 839.353 1241.21 837.41 1238.47 836.043C1235.74 834.675 1232.38 833.991 1228.38 833.991H1215.21V923H1188.49ZM1282.14 812.455H1311.99L1335.36 858.713H1336.34L1359.71 812.455H1389.56L1349.13 886.08V923H1322.57V886.08L1282.14 812.455ZM1474.27 923H1433.41V812.455H1474.22C1485.48 812.455 1495.18 814.668 1503.31 819.094C1511.48 823.484 1517.78 829.817 1522.21 838.094C1526.63 846.334 1528.85 856.194 1528.85 867.673C1528.85 879.188 1526.63 889.084 1522.21 897.361C1517.82 905.637 1511.54 911.989 1503.37 916.415C1495.2 920.805 1485.5 923 1474.27 923ZM1460.13 900.222H1473.25C1479.44 900.222 1484.67 899.178 1488.96 897.091C1493.27 894.968 1496.53 891.531 1498.73 886.781C1500.96 881.995 1502.07 875.626 1502.07 867.673C1502.07 859.721 1500.96 853.387 1498.73 848.673C1496.49 843.923 1493.2 840.505 1488.85 838.418C1484.53 836.295 1479.2 835.233 1472.87 835.233H1460.13V900.222ZM1561.83 923H1533.11L1570.41 812.455H1605.98L1643.28 923H1614.56L1588.6 840.307H1587.73L1561.83 923ZM1557.99 879.494H1618.02V899.79H1557.99V879.494ZM1711.52 845.597C1711.16 841.638 1709.56 838.562 1706.71 836.366C1703.91 834.135 1699.89 833.02 1694.68 833.02C1691.22 833.02 1688.34 833.47 1686.04 834.369C1683.74 835.269 1682.01 836.51 1680.86 838.094C1679.71 839.641 1679.11 841.422 1679.08 843.438C1679.01 845.093 1679.33 846.55 1680.05 847.81C1680.8 849.069 1681.88 850.185 1683.29 851.156C1684.73 852.092 1686.45 852.92 1688.47 853.639C1690.48 854.359 1692.75 854.989 1695.27 855.528L1704.77 857.688C1710.24 858.875 1715.06 860.458 1719.24 862.438C1723.45 864.417 1726.97 866.774 1729.82 869.509C1732.69 872.243 1734.87 875.392 1736.35 878.955C1737.82 882.517 1738.58 886.511 1738.61 890.938C1738.58 897.919 1736.82 903.91 1733.32 908.912C1729.83 913.914 1724.81 917.746 1718.26 920.409C1711.75 923.072 1703.89 924.403 1694.68 924.403C1685.43 924.403 1677.37 923.018 1670.5 920.247C1663.62 917.476 1658.28 913.266 1654.46 907.616C1650.65 901.967 1648.69 894.824 1648.58 886.188H1674.17C1674.38 889.75 1675.33 892.719 1677.03 895.094C1678.72 897.469 1681.04 899.268 1683.99 900.491C1686.98 901.715 1690.43 902.327 1694.35 902.327C1697.95 902.327 1701.01 901.841 1703.53 900.869C1706.08 899.898 1708.05 898.548 1709.41 896.821C1710.78 895.094 1711.48 893.115 1711.52 890.884C1711.48 888.796 1710.83 887.015 1709.57 885.54C1708.32 884.028 1706.37 882.733 1703.75 881.653C1701.15 880.538 1697.84 879.512 1693.81 878.577L1682.26 875.878C1672.69 873.683 1665.15 870.138 1659.65 865.244C1654.14 860.314 1651.41 853.657 1651.44 845.273C1651.41 838.436 1653.24 832.444 1656.95 827.298C1660.65 822.152 1665.78 818.14 1672.33 815.261C1678.88 812.383 1686.35 810.943 1694.73 810.943C1703.3 810.943 1710.73 812.401 1717.02 815.315C1723.36 818.194 1728.27 822.242 1731.76 827.46C1735.25 832.678 1737.03 838.723 1737.1 845.597H1711.52ZM1752.11 923V812.455H1778.83V856.824H1822.39V812.455H1849.05V923H1822.39V878.577H1778.83V923H1752.11ZM1865.81 923V812.455H1911.91C1920.18 812.455 1927.11 813.624 1932.69 815.963C1938.3 818.302 1942.51 821.577 1945.32 825.787C1948.16 829.997 1949.58 834.873 1949.58 840.415C1949.58 844.625 1948.7 848.385 1946.94 851.696C1945.18 854.971 1942.75 857.687 1939.65 859.847C1936.56 862.006 1932.98 863.517 1928.91 864.381V865.46C1933.37 865.676 1937.49 866.882 1941.27 869.077C1945.09 871.272 1948.15 874.33 1950.45 878.253C1952.75 882.139 1953.9 886.745 1953.9 892.071C1953.9 898.009 1952.39 903.316 1949.37 907.994C1946.35 912.636 1941.97 916.307 1936.25 919.006C1930.53 921.669 1923.59 923 1915.42 923H1865.81ZM1892.53 901.463H1909.05C1914.84 901.463 1919.11 900.366 1921.84 898.17C1924.61 895.975 1926 892.917 1926 888.994C1926 886.152 1925.33 883.705 1924 881.653C1922.67 879.566 1920.78 877.965 1918.33 876.849C1915.88 875.698 1912.95 875.122 1909.53 875.122H1892.53V901.463ZM1892.53 857.903H1907.32C1910.24 857.903 1912.83 857.418 1915.09 856.446C1917.36 855.474 1919.12 854.071 1920.38 852.236C1921.68 850.401 1922.33 848.187 1922.33 845.597C1922.33 841.89 1921.01 838.975 1918.39 836.852C1915.76 834.729 1912.21 833.668 1907.75 833.668H1892.53V857.903ZM2071.09 867.727C2071.09 879.89 2068.75 890.2 2064.07 898.656C2059.39 907.113 2053.06 913.536 2045.07 917.926C2037.12 922.316 2028.19 924.511 2018.3 924.511C2008.37 924.511 1999.42 922.298 1991.47 917.872C1983.52 913.446 1977.2 907.023 1972.52 898.602C1967.88 890.146 1965.56 879.854 1965.56 867.727C1965.56 855.564 1967.88 845.255 1972.52 836.798C1977.2 828.342 1983.52 821.919 1991.47 817.528C1999.42 813.138 2008.37 810.943 2018.3 810.943C2028.19 810.943 2037.12 813.138 2045.07 817.528C2053.06 821.919 2059.39 828.342 2064.07 836.798C2068.75 845.255 2071.09 855.564 2071.09 867.727ZM2043.77 867.727C2043.77 860.53 2042.75 854.449 2040.7 849.483C2038.68 844.517 2035.77 840.757 2031.95 838.202C2028.18 835.647 2023.62 834.369 2018.3 834.369C2013.01 834.369 2008.46 835.647 2004.64 838.202C2000.83 840.757 1997.89 844.517 1995.84 849.483C1993.83 854.449 1992.82 860.53 1992.82 867.727C1992.82 874.924 1993.83 881.006 1995.84 885.972C1997.89 890.937 2000.83 894.698 2004.64 897.253C2008.46 899.808 2013.01 901.085 2018.3 901.085C2023.62 901.085 2028.18 899.808 2031.95 897.253C2035.77 894.698 2038.68 890.937 2040.7 885.972C2042.75 881.006 2043.77 874.924 2043.77 867.727ZM2104.07 923H2075.35L2112.65 812.455H2148.22L2185.52 923H2156.8L2130.84 840.307H2129.98L2104.07 923ZM2100.24 879.494H2160.26V899.79H2100.24V879.494ZM2197.42 923V812.455H2243.09C2251.36 812.455 2258.51 813.948 2264.51 816.935C2270.56 819.885 2275.22 824.132 2278.5 829.673C2281.77 835.179 2283.41 841.71 2283.41 849.267C2283.41 856.932 2281.73 863.445 2278.39 868.807C2275.04 874.133 2270.29 878.199 2264.14 881.006C2257.98 883.777 2250.7 885.162 2242.28 885.162H2213.4V864.111H2237.31C2241.34 864.111 2244.71 863.589 2247.4 862.545C2250.14 861.466 2252.21 859.847 2253.61 857.688C2255.01 855.492 2255.72 852.686 2255.72 849.267C2255.72 845.848 2255.01 843.024 2253.61 840.793C2252.21 838.526 2250.14 836.834 2247.4 835.719C2244.67 834.567 2241.3 833.991 2237.31 833.991H2224.14V923H2197.42ZM2259.66 872.477L2287.19 923H2258.04L2231.05 872.477H2259.66ZM2338.92 923H2298.06V812.455H2338.87C2350.13 812.455 2359.83 814.668 2367.96 819.094C2376.13 823.484 2382.43 829.817 2386.85 838.094C2391.28 846.334 2393.49 856.194 2393.49 867.673C2393.49 879.188 2391.28 889.084 2386.85 897.361C2382.46 905.637 2376.18 911.989 2368.02 916.415C2359.85 920.805 2350.15 923 2338.92 923ZM2324.78 900.222H2337.9C2344.09 900.222 2349.32 899.178 2353.6 897.091C2357.92 894.968 2361.18 891.531 2363.37 886.781C2365.61 881.995 2366.72 875.626 2366.72 867.673C2366.72 859.721 2365.61 853.387 2363.37 848.673C2361.14 843.923 2357.85 840.505 2353.5 838.418C2349.18 836.295 2343.85 835.233 2337.52 835.233H2324.78V900.222Z" fill="#E6F1FC"/>
<path d="M-1144.63 1099V988.455H-1117.91V1032.82H-1074.36V988.455H-1047.69V1099H-1074.36V1054.58H-1117.91V1099H-1144.63ZM-1007.02 1099H-1035.73L-998.436 988.455H-962.865L-925.567 1099H-954.283L-980.246 1016.31H-981.109L-1007.02 1099ZM-1010.85 1055.49H-950.828V1075.79H-1010.85V1055.49ZM-913.665 1099V988.455H-868C-859.723 988.455 -852.58 990.074 -846.571 993.312C-840.526 996.515 -835.866 1001 -832.591 1006.75C-829.316 1012.47 -827.679 1019.13 -827.679 1026.72C-827.679 1034.35 -829.352 1041.03 -832.699 1046.75C-836.009 1052.44 -840.741 1056.84 -846.895 1059.97C-853.048 1063.11 -860.353 1064.67 -868.81 1064.67H-896.986V1043.62H-873.776C-869.745 1043.62 -866.381 1042.92 -863.682 1041.51C-860.947 1040.11 -858.878 1038.15 -857.474 1035.63C-856.071 1033.08 -855.369 1030.11 -855.369 1026.72C-855.369 1023.31 -856.071 1020.36 -857.474 1017.87C-858.878 1015.35 -860.947 1013.41 -863.682 1012.04C-866.417 1010.68 -869.781 1009.99 -873.776 1009.99H-886.946V1099H-913.665ZM-814.509 1099V988.455H-768.844C-760.567 988.455 -753.424 990.074 -747.415 993.312C-741.369 996.515 -736.709 1001 -733.435 1006.75C-730.16 1012.47 -728.523 1019.13 -728.523 1026.72C-728.523 1034.35 -730.196 1041.03 -733.543 1046.75C-736.853 1052.44 -741.585 1056.84 -747.739 1059.97C-753.892 1063.11 -761.197 1064.67 -769.653 1064.67H-797.83V1043.62H-774.619C-770.589 1043.62 -767.224 1042.92 -764.526 1041.51C-761.791 1040.11 -759.722 1038.15 -758.318 1035.63C-756.915 1033.08 -756.213 1030.11 -756.213 1026.72C-756.213 1023.31 -756.915 1020.36 -758.318 1017.87C-759.722 1015.35 -761.791 1013.41 -764.526 1012.04C-767.26 1010.68 -770.625 1009.99 -774.619 1009.99H-787.79V1099H-814.509ZM-720.858 988.455H-691.009L-667.636 1034.71H-666.665L-643.293 988.455H-613.443L-653.872 1062.08V1099H-680.429V1062.08L-720.858 988.455ZM-528.726 1099H-569.587V988.455H-528.78C-517.517 988.455 -507.819 990.668 -499.686 995.094C-491.518 999.484 -485.22 1005.82 -480.794 1014.09C-476.368 1022.33 -474.155 1032.19 -474.155 1043.67C-474.155 1055.19 -476.368 1065.08 -480.794 1073.36C-485.184 1081.64 -491.464 1087.99 -499.632 1092.41C-507.801 1096.8 -517.499 1099 -528.726 1099ZM-542.868 1076.22H-529.751C-523.562 1076.22 -518.326 1075.18 -514.044 1073.09C-509.726 1070.97 -506.469 1067.53 -504.274 1062.78C-502.043 1058 -500.928 1051.63 -500.928 1043.67C-500.928 1035.72 -502.043 1029.39 -504.274 1024.67C-506.505 1019.92 -509.798 1016.5 -514.152 1014.42C-518.47 1012.29 -523.796 1011.23 -530.129 1011.23H-542.868V1076.22ZM-441.175 1099H-469.891L-432.592 988.455H-397.021L-359.723 1099H-388.439L-414.402 1016.31H-415.266L-441.175 1099ZM-445.007 1055.49H-384.984V1075.79H-445.007V1055.49ZM-291.482 1021.6C-291.842 1017.64 -293.443 1014.56 -296.286 1012.37C-299.093 1010.14 -303.105 1009.02 -308.323 1009.02C-311.778 1009.02 -314.656 1009.47 -316.96 1010.37C-319.263 1011.27 -320.99 1012.51 -322.141 1014.09C-323.293 1015.64 -323.887 1017.42 -323.923 1019.44C-323.995 1021.09 -323.671 1022.55 -322.951 1023.81C-322.195 1025.07 -321.116 1026.18 -319.712 1027.16C-318.273 1028.09 -316.546 1028.92 -314.531 1029.64C-312.515 1030.36 -310.248 1030.99 -307.729 1031.53L-298.229 1033.69C-292.76 1034.88 -287.938 1036.46 -283.763 1038.44C-279.553 1040.42 -276.027 1042.77 -273.184 1045.51C-270.305 1048.24 -268.128 1051.39 -266.653 1054.95C-265.177 1058.52 -264.422 1062.51 -264.386 1066.94C-264.422 1073.92 -266.185 1079.91 -269.675 1084.91C-273.166 1089.91 -278.186 1093.75 -284.735 1096.41C-291.248 1099.07 -299.111 1100.4 -308.323 1100.4C-317.571 1100.4 -325.632 1099.02 -332.505 1096.25C-339.378 1093.48 -344.722 1089.27 -348.536 1083.62C-352.351 1077.97 -354.312 1070.82 -354.42 1062.19H-328.835C-328.619 1065.75 -327.665 1068.72 -325.974 1071.09C-324.282 1073.47 -321.961 1075.27 -319.011 1076.49C-316.024 1077.71 -312.569 1078.33 -308.647 1078.33C-305.049 1078.33 -301.99 1077.84 -299.471 1076.87C-296.916 1075.9 -294.955 1074.55 -293.587 1072.82C-292.22 1071.09 -291.518 1069.11 -291.482 1066.88C-291.518 1064.8 -292.166 1063.02 -293.425 1061.54C-294.685 1060.03 -296.628 1058.73 -299.255 1057.65C-301.846 1056.54 -305.156 1055.51 -309.187 1054.58L-320.738 1051.88C-330.31 1049.68 -337.849 1046.14 -343.354 1041.24C-348.86 1036.31 -351.595 1029.66 -351.559 1021.27C-351.595 1014.44 -349.76 1008.44 -346.053 1003.3C-342.347 998.152 -337.219 994.14 -330.67 991.261C-324.121 988.383 -316.654 986.943 -308.269 986.943C-299.705 986.943 -292.274 988.401 -285.977 991.315C-279.643 994.194 -274.731 998.242 -271.241 1003.46C-267.75 1008.68 -265.969 1014.72 -265.897 1021.6H-291.482ZM-250.891 1099V988.455H-224.173V1032.82H-180.613V988.455H-153.948V1099H-180.613V1054.58H-224.173V1099H-250.891ZM-137.188 1099V988.455H-91.0916C-82.8151 988.455 -75.888 989.624 -70.3104 991.963C-64.6967 994.302 -60.4865 997.577 -57.6797 1001.79C-54.8369 1006 -53.4155 1010.87 -53.4155 1016.41C-53.4155 1020.62 -54.2971 1024.39 -56.0604 1027.7C-57.8236 1030.97 -60.2526 1033.69 -63.3473 1035.85C-66.442 1038.01 -70.0225 1039.52 -74.0888 1040.38V1041.46C-69.6267 1041.68 -65.5064 1042.88 -61.728 1045.08C-57.9136 1047.27 -54.8549 1050.33 -52.5518 1054.25C-50.2488 1058.14 -49.0973 1062.75 -49.0973 1068.07C-49.0973 1074.01 -50.6087 1079.32 -53.6314 1083.99C-56.6541 1088.64 -61.0263 1092.31 -66.7479 1095.01C-72.4695 1097.67 -79.4145 1099 -87.5831 1099H-137.188ZM-110.469 1077.46H-93.9524C-88.1589 1077.46 -83.8946 1076.37 -81.1598 1074.17C-78.389 1071.98 -77.0035 1068.92 -77.0035 1064.99C-77.0035 1062.15 -77.6693 1059.7 -79.0007 1057.65C-80.3321 1055.57 -82.2214 1053.96 -84.6683 1052.85C-87.1153 1051.7 -90.0481 1051.12 -93.4666 1051.12H-110.469V1077.46ZM-110.469 1033.9H-95.6797C-92.7649 1033.9 -90.174 1033.42 -87.907 1032.45C-85.6399 1031.47 -83.8767 1030.07 -82.6172 1028.24C-81.3217 1026.4 -80.674 1024.19 -80.674 1021.6C-80.674 1017.89 -81.9875 1014.98 -84.6143 1012.85C-87.2412 1010.73 -90.7857 1009.67 -95.2479 1009.67H-110.469V1033.9ZM68.0874 1043.73C68.0874 1055.89 65.7483 1066.2 61.0703 1074.66C56.3923 1083.11 50.059 1089.54 42.0703 1093.93C34.1177 1098.32 25.1934 1100.51 15.2976 1100.51C5.36577 1100.51 -3.57647 1098.3 -11.5291 1093.87C-19.4818 1089.45 -25.7971 1083.02 -30.4751 1074.6C-35.1172 1066.15 -37.4382 1055.85 -37.4382 1043.73C-37.4382 1031.56 -35.1172 1021.25 -30.4751 1012.8C-25.7971 1004.34 -19.4818 997.919 -11.5291 993.528C-3.57647 989.138 5.36577 986.943 15.2976 986.943C25.1934 986.943 34.1177 989.138 42.0703 993.528C50.059 997.919 56.3923 1004.34 61.0703 1012.8C65.7483 1021.25 68.0874 1031.56 68.0874 1043.73ZM40.7749 1043.73C40.7749 1036.53 39.7493 1030.45 37.6982 1025.48C35.683 1020.52 32.7682 1016.76 28.9538 1014.2C25.1754 1011.65 20.6233 1010.37 15.2976 1010.37C10.0078 1010.37 5.45573 1011.65 1.64134 1014.2C-2.17306 1016.76 -5.10582 1020.52 -7.15696 1025.48C-9.17211 1030.45 -10.1797 1036.53 -10.1797 1043.73C-10.1797 1050.92 -9.17211 1057.01 -7.15696 1061.97C-5.10582 1066.94 -2.17306 1070.7 1.64134 1073.25C5.45573 1075.81 10.0078 1077.09 15.2976 1077.09C20.6233 1077.09 25.1754 1075.81 28.9538 1073.25C32.7682 1070.7 35.683 1066.94 37.6982 1061.97C39.7493 1057.01 40.7749 1050.92 40.7749 1043.73ZM101.067 1099H72.3516L109.65 988.455H145.221L182.519 1099H153.803L127.84 1016.31H126.977L101.067 1099ZM97.2351 1055.49H157.258V1075.79H97.2351V1055.49ZM194.421 1099V988.455H240.086C248.362 988.455 255.505 989.948 261.515 992.935C267.56 995.885 272.22 1000.13 275.495 1005.67C278.77 1011.18 280.407 1017.71 280.407 1025.27C280.407 1032.93 278.734 1039.45 275.387 1044.81C272.04 1050.13 267.29 1054.2 261.137 1057.01C254.984 1059.78 247.697 1061.16 239.276 1061.16H210.398V1040.11H234.31C238.341 1040.11 241.705 1039.59 244.404 1038.55C247.139 1037.47 249.208 1035.85 250.612 1033.69C252.015 1031.49 252.717 1028.69 252.717 1025.27C252.717 1021.85 252.015 1019.02 250.612 1016.79C249.208 1014.53 247.139 1012.83 244.404 1011.72C241.669 1010.57 238.305 1009.99 234.31 1009.99H221.14V1099H194.421ZM256.657 1048.48L284.185 1099H255.038L228.049 1048.48H256.657ZM335.923 1099H295.062V988.455H335.869C347.132 988.455 356.83 990.668 364.962 995.094C373.131 999.484 379.428 1005.82 383.854 1014.09C388.281 1022.33 390.494 1032.19 390.494 1043.67C390.494 1055.19 388.281 1065.08 383.854 1073.36C379.464 1081.64 373.185 1087.99 365.016 1092.41C356.848 1096.8 347.15 1099 335.923 1099ZM321.781 1076.22H334.897C341.086 1076.22 346.322 1075.18 350.604 1073.09C354.923 1070.97 358.179 1067.53 360.374 1062.78C362.605 1058 363.721 1051.63 363.721 1043.67C363.721 1035.72 362.605 1029.39 360.374 1024.67C358.143 1019.92 354.851 1016.5 350.496 1014.42C346.178 1012.29 340.853 1011.23 334.519 1011.23H321.781V1076.22Z" fill="#E6F1FC"/>
<path d="M478.366 1099V988.455H505.085V1032.82H548.645V988.455H575.31V1099H548.645V1054.58H505.085V1099H478.366ZM615.982 1099H587.266L624.564 988.455H660.135L697.433 1099H668.717L642.754 1016.31H641.891L615.982 1099ZM612.149 1055.49H672.172V1075.79H612.149V1055.49ZM709.335 1099V988.455H755C763.277 988.455 770.42 990.074 776.429 993.312C782.474 996.515 787.134 1001 790.409 1006.75C793.684 1012.47 795.321 1019.13 795.321 1026.72C795.321 1034.35 793.648 1041.03 790.301 1046.75C786.991 1052.44 782.259 1056.84 776.105 1059.97C769.952 1063.11 762.647 1064.67 754.19 1064.67H726.014V1043.62H749.224C753.255 1043.62 756.619 1042.92 759.318 1041.51C762.053 1040.11 764.122 1038.15 765.526 1035.63C766.929 1033.08 767.631 1030.11 767.631 1026.72C767.631 1023.31 766.929 1020.36 765.526 1017.87C764.122 1015.35 762.053 1013.41 759.318 1012.04C756.583 1010.68 753.219 1009.99 749.224 1009.99H736.054V1099H709.335ZM808.491 1099V988.455H854.156C862.433 988.455 869.576 990.074 875.585 993.312C881.631 996.515 886.291 1001 889.565 1006.75C892.84 1012.47 894.477 1019.13 894.477 1026.72C894.477 1034.35 892.804 1041.03 889.457 1046.75C886.147 1052.44 881.415 1056.84 875.261 1059.97C869.108 1063.11 861.803 1064.67 853.347 1064.67H825.17V1043.62H848.381C852.411 1043.62 855.776 1042.92 858.474 1041.51C861.209 1040.11 863.278 1038.15 864.682 1035.63C866.085 1033.08 866.787 1030.11 866.787 1026.72C866.787 1023.31 866.085 1020.36 864.682 1017.87C863.278 1015.35 861.209 1013.41 858.474 1012.04C855.74 1010.68 852.375 1009.99 848.381 1009.99H835.21V1099H808.491ZM902.142 988.455H931.991L955.364 1034.71H956.335L979.707 988.455H1009.56L969.128 1062.08V1099H942.571V1062.08L902.142 988.455ZM1094.27 1099H1053.41V988.455H1094.22C1105.48 988.455 1115.18 990.668 1123.31 995.094C1131.48 999.484 1137.78 1005.82 1142.21 1014.09C1146.63 1022.33 1148.85 1032.19 1148.85 1043.67C1148.85 1055.19 1146.63 1065.08 1142.21 1073.36C1137.82 1081.64 1131.54 1087.99 1123.37 1092.41C1115.2 1096.8 1105.5 1099 1094.27 1099ZM1080.13 1076.22H1093.25C1099.44 1076.22 1104.67 1075.18 1108.96 1073.09C1113.27 1070.97 1116.53 1067.53 1118.73 1062.78C1120.96 1058 1122.07 1051.63 1122.07 1043.67C1122.07 1035.72 1120.96 1029.39 1118.73 1024.67C1116.49 1019.92 1113.2 1016.5 1108.85 1014.42C1104.53 1012.29 1099.2 1011.23 1092.87 1011.23H1080.13V1076.22ZM1181.83 1099H1153.11L1190.41 988.455H1225.98L1263.28 1099H1234.56L1208.6 1016.31H1207.73L1181.83 1099ZM1177.99 1055.49H1238.02V1075.79H1177.99V1055.49ZM1331.52 1021.6C1331.16 1017.64 1329.56 1014.56 1326.71 1012.37C1323.91 1010.14 1319.89 1009.02 1314.68 1009.02C1311.22 1009.02 1308.34 1009.47 1306.04 1010.37C1303.74 1011.27 1302.01 1012.51 1300.86 1014.09C1299.71 1015.64 1299.11 1017.42 1299.08 1019.44C1299.01 1021.09 1299.33 1022.55 1300.05 1023.81C1300.8 1025.07 1301.88 1026.18 1303.29 1027.16C1304.73 1028.09 1306.45 1028.92 1308.47 1029.64C1310.48 1030.36 1312.75 1030.99 1315.27 1031.53L1324.77 1033.69C1330.24 1034.88 1335.06 1036.46 1339.24 1038.44C1343.45 1040.42 1346.97 1042.77 1349.82 1045.51C1352.69 1048.24 1354.87 1051.39 1356.35 1054.95C1357.82 1058.52 1358.58 1062.51 1358.61 1066.94C1358.58 1073.92 1356.82 1079.91 1353.32 1084.91C1349.83 1089.91 1344.81 1093.75 1338.26 1096.41C1331.75 1099.07 1323.89 1100.4 1314.68 1100.4C1305.43 1100.4 1297.37 1099.02 1290.5 1096.25C1283.62 1093.48 1278.28 1089.27 1274.46 1083.62C1270.65 1077.97 1268.69 1070.82 1268.58 1062.19H1294.17C1294.38 1065.75 1295.33 1068.72 1297.03 1071.09C1298.72 1073.47 1301.04 1075.27 1303.99 1076.49C1306.98 1077.71 1310.43 1078.33 1314.35 1078.33C1317.95 1078.33 1321.01 1077.84 1323.53 1076.87C1326.08 1075.9 1328.05 1074.55 1329.41 1072.82C1330.78 1071.09 1331.48 1069.11 1331.52 1066.88C1331.48 1064.8 1330.83 1063.02 1329.57 1061.54C1328.32 1060.03 1326.37 1058.73 1323.75 1057.65C1321.15 1056.54 1317.84 1055.51 1313.81 1054.58L1302.26 1051.88C1292.69 1049.68 1285.15 1046.14 1279.65 1041.24C1274.14 1036.31 1271.41 1029.66 1271.44 1021.27C1271.41 1014.44 1273.24 1008.44 1276.95 1003.3C1280.65 998.152 1285.78 994.14 1292.33 991.261C1298.88 988.383 1306.35 986.943 1314.73 986.943C1323.3 986.943 1330.73 988.401 1337.02 991.315C1343.36 994.194 1348.27 998.242 1351.76 1003.46C1355.25 1008.68 1357.03 1014.72 1357.1 1021.6H1331.52ZM1372.11 1099V988.455H1398.83V1032.82H1442.39V988.455H1469.05V1099H1442.39V1054.58H1398.83V1099H1372.11ZM1485.81 1099V988.455H1531.91C1540.18 988.455 1547.11 989.624 1552.69 991.963C1558.3 994.302 1562.51 997.577 1565.32 1001.79C1568.16 1006 1569.58 1010.87 1569.58 1016.41C1569.58 1020.62 1568.7 1024.39 1566.94 1027.7C1565.18 1030.97 1562.75 1033.69 1559.65 1035.85C1556.56 1038.01 1552.98 1039.52 1548.91 1040.38V1041.46C1553.37 1041.68 1557.49 1042.88 1561.27 1045.08C1565.09 1047.27 1568.15 1050.33 1570.45 1054.25C1572.75 1058.14 1573.9 1062.75 1573.9 1068.07C1573.9 1074.01 1572.39 1079.32 1569.37 1083.99C1566.35 1088.64 1561.97 1092.31 1556.25 1095.01C1550.53 1097.67 1543.59 1099 1535.42 1099H1485.81ZM1512.53 1077.46H1529.05C1534.84 1077.46 1539.11 1076.37 1541.84 1074.17C1544.61 1071.98 1546 1068.92 1546 1064.99C1546 1062.15 1545.33 1059.7 1544 1057.65C1542.67 1055.57 1540.78 1053.96 1538.33 1052.85C1535.88 1051.7 1532.95 1051.12 1529.53 1051.12H1512.53V1077.46ZM1512.53 1033.9H1527.32C1530.24 1033.9 1532.83 1033.42 1535.09 1032.45C1537.36 1031.47 1539.12 1030.07 1540.38 1028.24C1541.68 1026.4 1542.33 1024.19 1542.33 1021.6C1542.33 1017.89 1541.01 1014.98 1538.39 1012.85C1535.76 1010.73 1532.21 1009.67 1527.75 1009.67H1512.53V1033.9ZM1691.09 1043.73C1691.09 1055.89 1688.75 1066.2 1684.07 1074.66C1679.39 1083.11 1673.06 1089.54 1665.07 1093.93C1657.12 1098.32 1648.19 1100.51 1638.3 1100.51C1628.37 1100.51 1619.42 1098.3 1611.47 1093.87C1603.52 1089.45 1597.2 1083.02 1592.52 1074.6C1587.88 1066.15 1585.56 1055.85 1585.56 1043.73C1585.56 1031.56 1587.88 1021.25 1592.52 1012.8C1597.2 1004.34 1603.52 997.919 1611.47 993.528C1619.42 989.138 1628.37 986.943 1638.3 986.943C1648.19 986.943 1657.12 989.138 1665.07 993.528C1673.06 997.919 1679.39 1004.34 1684.07 1012.8C1688.75 1021.25 1691.09 1031.56 1691.09 1043.73ZM1663.77 1043.73C1663.77 1036.53 1662.75 1030.45 1660.7 1025.48C1658.68 1020.52 1655.77 1016.76 1651.95 1014.2C1648.18 1011.65 1643.62 1010.37 1638.3 1010.37C1633.01 1010.37 1628.46 1011.65 1624.64 1014.2C1620.83 1016.76 1617.89 1020.52 1615.84 1025.48C1613.83 1030.45 1612.82 1036.53 1612.82 1043.73C1612.82 1050.92 1613.83 1057.01 1615.84 1061.97C1617.89 1066.94 1620.83 1070.7 1624.64 1073.25C1628.46 1075.81 1633.01 1077.09 1638.3 1077.09C1643.62 1077.09 1648.18 1075.81 1651.95 1073.25C1655.77 1070.7 1658.68 1066.94 1660.7 1061.97C1662.75 1057.01 1663.77 1050.92 1663.77 1043.73ZM1724.07 1099H1695.35L1732.65 988.455H1768.22L1805.52 1099H1776.8L1750.84 1016.31H1749.98L1724.07 1099ZM1720.24 1055.49H1780.26V1075.79H1720.24V1055.49ZM1817.42 1099V988.455H1863.09C1871.36 988.455 1878.51 989.948 1884.51 992.935C1890.56 995.885 1895.22 1000.13 1898.5 1005.67C1901.77 1011.18 1903.41 1017.71 1903.41 1025.27C1903.41 1032.93 1901.73 1039.45 1898.39 1044.81C1895.04 1050.13 1890.29 1054.2 1884.14 1057.01C1877.98 1059.78 1870.7 1061.16 1862.28 1061.16H1833.4V1040.11H1857.31C1861.34 1040.11 1864.71 1039.59 1867.4 1038.55C1870.14 1037.47 1872.21 1035.85 1873.61 1033.69C1875.01 1031.49 1875.72 1028.69 1875.72 1025.27C1875.72 1021.85 1875.01 1019.02 1873.61 1016.79C1872.21 1014.53 1870.14 1012.83 1867.4 1011.72C1864.67 1010.57 1861.3 1009.99 1857.31 1009.99H1844.14V1099H1817.42ZM1879.66 1048.48L1907.19 1099H1878.04L1851.05 1048.48H1879.66ZM1958.92 1099H1918.06V988.455H1958.87C1970.13 988.455 1979.83 990.668 1987.96 995.094C1996.13 999.484 2002.43 1005.82 2006.85 1014.09C2011.28 1022.33 2013.49 1032.19 2013.49 1043.67C2013.49 1055.19 2011.28 1065.08 2006.85 1073.36C2002.46 1081.64 1996.18 1087.99 1988.02 1092.41C1979.85 1096.8 1970.15 1099 1958.92 1099ZM1944.78 1076.22H1957.9C1964.09 1076.22 1969.32 1075.18 1973.6 1073.09C1977.92 1070.97 1981.18 1067.53 1983.37 1062.78C1985.61 1058 1986.72 1051.63 1986.72 1043.67C1986.72 1035.72 1985.61 1029.39 1983.37 1024.67C1981.14 1019.92 1977.85 1016.5 1973.5 1014.42C1969.18 1012.29 1963.85 1011.23 1957.52 1011.23H1944.78V1076.22Z" fill="#E6F1FC"/>
</g>
</svg>
