<svg xmlns="http://www.w3.org/2000/svg" width="621" height="538" viewBox="0 0 621 538" fill="none">
<path d="M614.006 103.477H52.1934V362.098H614.006V103.477Z" fill="#ccd6e0"/>
<path d="M341.114 497.958H247.283L259.403 447.524H328.995L341.114 497.958Z" fill="#8cafd4"/>
<path d="M341.114 497.958H247.283L259.403 447.524H328.995L341.114 497.958Z" fill="#324559"/>
<path d="M415.006 473.132L420.284 470.395L425.171 464.139L419.307 460.034L415.006 473.132Z" fill="#8cafd4"/>
<path d="M148.175 311.469L146.024 305.409L150.52 299.545L159.708 299.74L148.175 311.469Z" fill="#8cafd4"/>
<path d="M415.006 473.132H180.625C176.324 473.132 172.023 469.613 171.437 465.313L144.851 310.883C144.07 306.582 147.002 303.064 151.302 303.064H385.684C389.985 303.064 394.285 306.582 394.872 310.883L421.457 465.313C422.239 469.613 419.307 473.132 415.006 473.132Z" fill="#8cafd4"/>
<path d="M419.307 467.463H184.925C180.624 467.463 176.324 463.944 175.737 459.644L149.152 305.214C148.37 300.913 151.302 297.394 155.603 297.394H389.985C394.285 297.394 398.586 300.913 399.172 305.214L425.758 459.644C426.539 463.944 423.607 467.463 419.307 467.463Z" fill="#324559"/>
<path d="M411.097 443.614H184.73C183.166 443.614 181.602 442.246 181.406 440.682L158.731 309.318C158.535 307.755 159.513 306.386 161.076 306.386H387.639C389.203 306.386 390.767 307.755 390.962 309.318L413.638 440.682C413.833 442.246 412.856 443.614 411.097 443.614Z" fill="white"/>
<path d="M382.165 327.108H174.76L173.196 318.311H380.406L382.165 327.108Z" fill="#8EB2D9"/>
<path d="M360.858 322.807C361.054 324.175 360.272 325.348 358.903 325.348C357.535 325.348 356.167 324.175 355.971 322.807C355.776 321.439 356.558 320.266 357.926 320.266C359.294 320.266 360.467 321.439 360.858 322.807Z" fill="white"/>
<path d="M369.264 322.807C369.459 324.176 368.677 325.348 367.309 325.348C365.941 325.348 364.572 324.176 364.377 322.807C364.181 321.439 364.963 320.266 366.332 320.266C367.7 320.461 369.068 321.439 369.264 322.807Z" fill="#ccd6e0"/>
<path d="M377.865 322.807C378.06 324.176 377.279 325.348 375.91 325.348C374.542 325.348 373.173 324.176 372.978 322.807C372.782 321.439 373.564 320.266 374.933 320.266C376.301 320.461 377.474 321.439 377.865 322.807Z" fill="#7ca1b0"/>
<path d="M400.345 496.786H187.857V506.169H400.345V496.786Z" fill="#8cafd4"/>
<path d="M186.684 346.851H180.234L179.256 340.009H185.707L186.684 346.851Z" fill="#7ca1b0"/>
<path d="M321.957 346.851H191.767L190.79 340.009H320.98L321.957 346.851Z" fill="#ccd6e0"/>
<path d="M189.226 363.857H182.775L181.797 357.015H188.248L189.226 363.857Z" fill="#7ca1b0"/>
<path d="M316.679 363.857H194.308L193.331 357.015H315.702L316.679 363.857Z" fill="#ccd6e0"/>
<path d="M191.767 380.669H185.316L184.143 373.827H190.789L191.767 380.669Z" fill="#7ca1b0"/>
<path d="M319.221 380.669H196.849L195.872 373.827H318.243L319.221 380.669Z" fill="#ccd6e0"/>
<path d="M254.712 397.676H199.391L198.413 390.638H253.734L254.712 397.676Z" fill="#ccd6e0"/>
<path d="M427.126 303.649C425.562 308.537 423.998 313.033 423.803 317.92C423.607 322.807 422.435 326.13 419.502 328.671C416.57 331.017 415.006 332.581 415.593 333.558C416.179 334.536 421.066 338.836 421.066 338.836C421.066 338.836 422.434 349.978 422.825 353.497C423.412 357.211 429.472 359.166 435.336 357.993C443.742 356.429 446.87 354.67 450.388 350.565C453.907 346.655 459.771 340.009 459.185 338.445C458.403 336.881 467.395 310.491 467.395 310.491L427.126 303.649Z" fill="#d4c3c3"/>
<path d="M466.613 342.941C466.222 345.678 470.914 371.481 470.914 371.481L437.486 379.496C437.486 379.496 440.419 357.798 438.464 349.001C436.509 340.204 434.359 339.618 434.359 339.618L450.779 322.806L466.613 342.941Z" fill="#d4c3c3"/>
<path d="M419.698 293.093C427.322 298.762 436.118 291.334 451.17 289.379C462.899 287.815 473.651 295.048 471.5 304.627C471.5 304.627 475.41 301.89 478.147 314.987C481.079 328.084 470.718 337.468 469.154 342.159C467.591 346.655 467.591 349.783 467.591 349.783C467.591 349.783 460.553 349.392 456.839 345.287C452.93 340.986 451.366 336.686 451.366 336.686C451.366 336.686 455.275 335.513 457.23 332.385C460.553 327.498 458.599 321.438 453.712 322.611C448.824 323.784 446.479 331.994 446.479 331.994C446.479 331.994 442.374 331.212 442.569 327.693C442.765 324.175 443.155 319.092 443.155 319.092C443.155 319.092 436.509 318.701 434.75 310.491C434.163 307.363 428.494 306.581 424.976 305.409C421.848 304.236 419.698 293.093 419.698 293.093Z" fill="#103A60"/>
<path d="M388.03 426.02L366.331 421.133L354.407 429.539C354.407 429.539 307.883 412.141 302.018 409.795C296.154 407.254 291.658 399.435 290.68 395.916C289.703 392.398 284.229 394.352 284.229 394.352C284.229 394.352 279.733 385.36 277.388 382.037C274.846 378.518 271.523 372.654 269.373 371.677C267.418 370.699 266.832 374.609 269.959 380.082C272.892 385.556 274.846 392.397 274.846 392.397C274.846 392.397 269.959 393.375 270.937 397.285C270.937 397.285 265.072 402.172 265.463 404.126C265.463 404.126 260.576 407.645 264.877 411.555C269.373 415.464 272.892 420.547 279.147 421.524C285.598 422.502 292.049 424.065 296.545 426.411C301.041 428.952 336.618 456.124 347.956 459.643C359.294 463.162 401.909 441.854 401.909 441.854L388.03 426.02Z" fill="#d4c3c3"/>
<path d="M419.893 376.759C419.893 376.759 442.96 367.376 456.057 364.248C469.154 360.925 488.898 361.902 497.499 365.421C506.1 369.135 514.506 384.578 510.987 398.653C507.469 412.727 501.213 456.32 500.431 464.921C499.649 473.522 503.754 513.205 503.754 516.919C503.754 520.633 483.815 533.535 467.199 536.858C450.584 540.181 414.811 530.016 410.314 528.257C405.818 526.693 403.473 523.37 403.473 523.37C403.473 523.37 408.751 501.867 408.751 495.416C408.751 488.965 412.074 431.298 410.314 426.02C408.555 420.547 419.893 376.759 419.893 376.759Z" fill="#103A60"/>
<path d="M435.141 392.984C432.599 391.42 419.893 376.759 419.893 376.759C419.893 376.759 378.06 410.773 374.737 413.705C371.218 416.637 366.722 419.569 366.331 421.133C365.745 422.697 367.113 431.689 374.542 441.659C381.97 451.628 389.203 454.169 391.744 453.583C394.285 452.996 432.795 432.471 432.795 432.471L435.141 392.984Z" fill="#103A60"/>
<path d="M439.637 527.475C447.847 481.146 456.839 412.141 503.755 398.653C550.67 385.165 575.496 400.217 568.85 436.576C562.985 469.026 549.106 527.475 549.106 527.475H439.637Z" fill="#8cafd4"/>
<path d="M448.824 527.475C457.035 481.146 464.072 412.141 510.987 398.653C557.903 385.165 582.729 400.217 576.083 436.576C570.218 469.026 556.339 527.475 556.339 527.475H448.824Z" fill="#324559"/>
<path d="M620.848 505.582H116.702V537.836H620.848V505.582Z" fill="white"/>
<path d="M353.039 124.198H216.984V258.298H353.039V124.198Z" fill="#7ca1b0"/>
<path d="M226.758 212.751L264.877 172.091L304.559 205.322L323.325 190.661L343.46 214.314V248.719H226.758V212.751Z" fill="white"/>
<path d="M305.537 169.744C313.31 169.744 319.611 163.443 319.611 155.67C319.611 147.896 313.31 141.595 305.537 141.595C297.763 141.595 291.462 147.896 291.462 155.67C291.462 163.443 297.763 169.744 305.537 169.744Z" fill="white"/>
<path d="M267.418 19.2244H99.4998V147.851H267.418V19.2244Z" stroke="#7ca1b0" stroke-miterlimit="10" fill="#3a424a"/>
<path d="M267.418 44.637H99.4998" stroke="#7ca1b0" stroke-miterlimit="10" fill="#3a424a"/>
<path d="M212.488 37.7952C215.727 37.7952 218.352 35.1696 218.352 31.9308C218.352 28.692 215.727 26.0664 212.488 26.0664C209.249 26.0664 206.623 28.692 206.623 31.9308C206.623 35.1696 209.249 37.7952 212.488 37.7952Z" fill="#DAE1E9"/>
<path d="M232.231 37.7952C235.47 37.7952 238.096 35.1696 238.096 31.9308C238.096 28.692 235.47 26.0664 232.231 26.0664C228.993 26.0664 226.367 28.692 226.367 31.9308C226.367 35.1696 228.993 37.7952 232.231 37.7952Z" fill="#8EB2D9"/>
<path d="M252.17 37.7952C255.409 37.7952 258.035 35.1696 258.035 31.9308C258.035 28.692 255.409 26.0664 252.17 26.0664C248.932 26.0664 246.306 28.692 246.306 31.9308C246.306 35.1696 248.932 37.7952 252.17 37.7952Z" fill="#7ca1b0"/>
<path d="M118.657 67.1175H248.456" stroke="#7ca1b0" stroke-miterlimit="10" fill="#3a424a"/>
<path d="M118.657 84.32H228.126" stroke="#7ca1b0" stroke-miterlimit="10" fill="#3a424a"/>
<path d="M118.657 124.003H186.684" stroke="#7ca1b0" stroke-miterlimit="10" fill="#3a424a"/>
<path d="M582.338 255.561V258.494H579.406" stroke="#8EB2D9" stroke-width="0.75" stroke-miterlimit="10" fill="#3a424a"/>
<path d="M573.737 258.494H379.82" stroke="#8EB2D9" stroke-width="0.75" stroke-miterlimit="10" stroke-dasharray="2.96 2.96" fill="#3a424a"/>
<path d="M376.887 258.494H373.955V255.561" stroke="#8EB2D9" stroke-width="0.75" stroke-miterlimit="10" fill="#3a424a"/>
<path d="M373.955 249.501V131.431" stroke="#8EB2D9" stroke-width="0.75" stroke-miterlimit="10" stroke-dasharray="3.1 3.1" fill="#3a424a"/>
<path d="M373.955 128.303V125.371H376.887" stroke="#8EB2D9" stroke-width="0.75" stroke-miterlimit="10" fill="#3a424a"/>
<path d="M382.752 125.371H576.473" stroke="#8EB2D9" stroke-width="0.75" stroke-miterlimit="10" stroke-dasharray="2.96 2.96" fill="#3a424a"/>
<path d="M579.406 125.371H582.338V128.303" stroke="#8EB2D9" stroke-width="0.75" stroke-miterlimit="10" fill="#3a424a"/>
<path d="M582.338 134.363V252.434" stroke="#8EB2D9" stroke-width="0.75" stroke-miterlimit="10" stroke-dasharray="3.1 3.1" fill="#3a424a"/>
<path d="M597.586 139.445H389.203V272.372H597.586V139.445Z" fill="white"/>
<path d="M597.586 139.445H389.203V148.046H597.586V139.445Z" fill="#8EB2D9"/>
<path d="M574.519 146.482C575.923 146.482 577.06 145.345 577.06 143.941C577.06 142.538 575.923 141.4 574.519 141.4C573.116 141.4 571.978 142.538 571.978 143.941C571.978 145.345 573.116 146.482 574.519 146.482Z" fill="white"/>
<path d="M583.12 146.482C584.524 146.482 585.661 145.345 585.661 143.941C585.661 142.538 584.524 141.4 583.12 141.4C581.717 141.4 580.579 142.538 580.579 143.941C580.579 145.345 581.717 146.482 583.12 146.482Z" fill="#ccd6e0"/>
<path d="M591.721 146.482C593.125 146.482 594.262 145.345 594.262 143.941C594.262 142.538 593.125 141.4 591.721 141.4C590.318 141.4 589.18 142.538 589.18 143.941C589.18 145.345 590.318 146.482 591.721 146.482Z" fill="#004b9a"/>
<path d="M495.936 243.245C514.613 243.245 529.754 228.105 529.754 209.427C529.754 190.75 514.613 175.609 495.936 175.609C477.258 175.609 462.117 190.75 462.117 209.427C462.117 228.105 477.258 243.245 495.936 243.245Z" fill="#7ca1b0"/>
<path d="M488.898 197.503V223.306L511.379 210.405L488.898 197.503Z" fill="white"/>
<path d="M596.413 387.315H512.942C509.228 387.315 506.296 384.383 506.296 380.669V317.919H603.255V380.669C603.059 384.187 600.127 387.315 596.413 387.315Z" fill="#7ca1b0"/>
<path d="M596.413 291.921C598.954 291.921 601.104 294.071 601.104 296.612V315.769H508.055V296.612C508.055 294.071 510.205 291.921 512.747 291.921H596.413ZM596.413 289.966H512.942C509.228 289.966 506.296 292.898 506.296 296.612V317.724H603.255V296.612C603.059 292.898 600.127 289.966 596.413 289.966Z" fill="#7ca1b0"/>
<path d="M527.408 294.071H526.235C525.648 294.071 525.062 293.484 525.062 292.898V286.056C525.062 285.47 525.648 284.883 526.235 284.883H527.603C528.19 284.883 528.776 285.47 528.776 286.056V292.898C528.581 293.484 528.19 294.071 527.408 294.071Z" fill="#7ca1b0"/>
<path d="M542.264 294.071H540.896C540.31 294.071 539.723 293.484 539.723 292.898V286.056C539.723 285.47 540.31 284.883 540.896 284.883H542.264C542.851 284.883 543.437 285.47 543.437 286.056V292.898C543.437 293.484 542.851 294.071 542.264 294.071Z" fill="#7ca1b0"/>
<path d="M557.121 294.071H555.752C555.166 294.071 554.58 293.484 554.58 292.898V286.056C554.58 285.47 555.166 284.883 555.752 284.883H557.121C557.707 284.883 558.294 285.47 558.294 286.056V292.898C558.098 293.484 557.707 294.071 557.121 294.071Z" fill="#7ca1b0"/>
<path d="M571.782 294.071H570.414C569.827 294.071 569.241 293.484 569.241 292.898V286.056C569.241 285.47 569.827 284.883 570.414 284.883H571.782C572.368 284.883 572.955 285.47 572.955 286.056V292.898C572.955 293.484 572.564 294.071 571.782 294.071Z" fill="#7ca1b0"/>
<path d="M586.639 294.071H585.27C584.684 294.071 584.097 293.484 584.097 292.898V286.056C584.097 285.47 584.684 284.883 585.27 284.883H586.639C587.225 284.883 587.812 285.47 587.812 286.056V292.898C587.812 293.484 587.225 294.071 586.639 294.071Z" fill="#7ca1b0"/>
<path d="M538.711 328.623V343.248H536.94V330.479H536.854L533.284 332.85V331.051L536.94 328.623H538.711ZM547.574 328.423C548.174 328.427 548.774 328.542 549.373 328.765C549.973 328.989 550.521 329.361 551.016 329.879C551.511 330.394 551.909 331.096 552.209 331.986C552.509 332.877 552.658 333.993 552.658 335.336C552.658 336.635 552.535 337.79 552.287 338.799C552.044 339.804 551.692 340.651 551.23 341.341C550.773 342.032 550.216 342.556 549.559 342.913C548.907 343.27 548.169 343.448 547.345 343.448C546.526 343.448 545.796 343.286 545.153 342.963C544.515 342.634 543.991 342.179 543.582 341.599C543.177 341.013 542.918 340.335 542.803 339.563H544.546C544.703 340.235 545.015 340.789 545.481 341.227C545.953 341.66 546.574 341.877 547.345 341.877C548.474 341.877 549.364 341.384 550.016 340.399C550.673 339.413 551.002 338.021 551.002 336.221H550.887C550.621 336.621 550.304 336.966 549.938 337.257C549.571 337.547 549.164 337.771 548.716 337.928C548.269 338.085 547.793 338.164 547.288 338.164C546.45 338.164 545.681 337.956 544.981 337.542C544.286 337.123 543.729 336.55 543.31 335.821C542.896 335.088 542.689 334.25 542.689 333.307C542.689 332.412 542.889 331.593 543.289 330.851C543.694 330.103 544.26 329.508 544.989 329.065C545.722 328.623 546.583 328.408 547.574 328.423ZM547.574 329.994C546.974 329.994 546.434 330.144 545.953 330.444C545.477 330.739 545.098 331.139 544.817 331.643C544.541 332.143 544.403 332.698 544.403 333.307C544.403 333.917 544.536 334.471 544.803 334.971C545.074 335.466 545.443 335.862 545.91 336.157C546.381 336.447 546.917 336.592 547.517 336.592C547.969 336.592 548.39 336.504 548.781 336.328C549.171 336.147 549.511 335.902 549.802 335.593C550.097 335.278 550.328 334.924 550.495 334.529C550.661 334.129 550.745 333.712 550.745 333.279C550.745 332.707 550.607 332.172 550.33 331.672C550.059 331.172 549.683 330.767 549.202 330.458C548.726 330.148 548.183 329.994 547.574 329.994Z" fill="white"/>
<path d="M615.179 59.2957L386.075 59.6933L386.078 61.6481L615.182 61.2505L615.179 59.2957Z" fill="#E6ECF7"/>
<path d="M615.179 72.1971L386.075 72.5948L386.078 74.5496L615.182 74.1519L615.179 72.1971Z" fill="#E6ECF7"/>
<path d="M553.799 85.0856L386.076 85.5114L386.081 87.4662L553.804 87.0404L553.799 85.0856Z" fill="#E6ECF7"/>
<path d="M586.248 46.9827V40.3363H386.271V46.7872L586.248 46.9827Z" fill="#7ca1b0"/>
<path d="M391.158 28.6077L387.248 30.9535L388.03 26.4574L384.902 23.3297L389.203 22.9388L391.158 18.8336L393.112 22.9388L397.608 23.3297L394.285 26.4574L395.067 30.9535L391.158 28.6077Z" fill="#7ca1b0"/>
<path d="M409.728 28.6076L405.818 30.9534L406.6 26.4573L403.277 23.3296L407.773 22.9387L409.728 18.8336L411.683 22.9387L415.983 23.3296L412.66 26.4573L413.638 30.9534L409.728 28.6076Z" fill="#7ca1b0"/>
<path d="M428.299 28.6076L424.389 30.9534L425.171 26.4573L421.848 23.3296L426.344 22.9387L428.299 18.8336L430.058 22.9387L434.554 23.3296L431.231 26.4573L432.208 30.9534L428.299 28.6076Z" fill="#7ca1b0"/>
<path d="M446.87 28.6076L442.764 30.9534L443.742 26.4573L440.419 23.3296L444.915 22.9387L446.87 18.8336L448.629 22.9387L453.125 23.3296L449.802 26.4573L450.779 30.9534L446.87 28.6076Z" fill="#7ca1b0"/>
<path d="M465.245 28.6076L461.335 30.9534L462.312 26.4573L458.989 23.3296L463.485 22.9387L465.245 18.8336L467.199 22.9387L471.696 23.3296L468.372 26.4573L469.154 30.9534L465.245 28.6076Z" fill="#7ca1b0"/>
<mask id="mask0_179_7269" style="mask-type:luminance" maskUnits="userSpaceOnUse" x="293" y="16" width="75" height="75" fill="#3a424a">
<path d="M347.065 20.5025C328.946 11.3567 306.843 18.6309 297.698 36.75C288.552 54.8691 295.826 76.9717 313.945 86.1175C332.064 95.2633 354.167 87.989 363.313 69.8699C372.458 51.7509 365.184 29.6483 347.065 20.5025Z" fill="white"/>
</mask>
<g mask="url(#mask0_179_7269)">
<path d="M366.254 61.7648C370.955 42.0202 358.759 22.2033 339.015 17.5026C319.27 12.8019 299.453 24.9974 294.753 44.742C290.052 64.4867 302.247 84.3035 321.992 89.0042C341.737 93.7049 361.554 81.5095 366.254 61.7648Z" fill="#7ca1b0"/>
</g>
<mask id="mask1_179_7269" style="mask-type:luminance" maskUnits="userSpaceOnUse" x="293" y="16" width="75" height="75" fill="#3a424a">
<path d="M366.255 61.7646C370.956 42.0198 358.76 22.2026 339.015 17.5019C319.271 12.8011 299.453 24.9968 294.753 44.7416C290.052 64.4865 302.248 84.3035 321.992 89.0043C341.737 93.7051 361.554 81.5094 366.255 61.7646Z" fill="white"/>
</mask>
<g mask="url(#mask1_179_7269)">
<path d="M330.559 57.7343C315.311 57.7343 302.996 70.0496 302.996 85.2971V91.357H358.122V85.2971C358.122 70.0496 345.806 57.7343 330.559 57.7343Z" fill="white"/>
</g>
<mask id="mask2_179_7269" style="mask-type:luminance" maskUnits="userSpaceOnUse" x="293" y="16" width="75" height="75" fill="#3a424a">
<path d="M366.255 61.7646C370.956 42.0198 358.76 22.2026 339.015 17.5019C319.271 12.8011 299.453 24.9968 294.753 44.7416C290.052 64.4865 302.248 84.3035 321.992 89.0043C341.737 93.7051 361.554 81.5094 366.255 61.7646Z" fill="white"/>
</mask>
<g mask="url(#mask2_179_7269)">
<path d="M330.558 53.6288C337.684 53.6288 343.46 47.8525 343.46 40.7271C343.46 33.6016 337.684 27.8253 330.558 27.8253C323.433 27.8253 317.657 33.6016 317.657 40.7271C317.657 47.8525 323.433 53.6288 330.558 53.6288Z" fill="white"/>
</g>
<path d="M179.843 408.623H53.171C48.6749 408.623 45.1562 412.337 45.1562 416.638V465.117C45.1562 469.613 48.8704 473.132 53.171 473.132H144.461L172.219 490.92L168.896 473.132H179.843C184.339 473.132 187.857 469.417 187.857 465.117V416.638C188.053 412.337 184.339 408.623 179.843 408.623Z" fill="#7ca1b0"/>
<path d="M66.6592 425.825H171.046" stroke="#F5F5F5" stroke-miterlimit="10" fill="#3a424a"/>
<path d="M66.6592 440.877H171.046" stroke="#F5F5F5" stroke-miterlimit="10" fill="#3a424a"/>
<path d="M66.6592 456.125H104.387" stroke="#F5F5F5" stroke-miterlimit="10" fill="#3a424a"/>
<path d="M199.977 238.359V221.938H193.135C192.353 219.202 191.376 216.66 189.812 214.119L194.699 209.232L182.97 197.503L178.083 202.39C175.542 201.022 173.001 199.849 170.264 199.067V192.421H153.844V199.263C151.107 200.045 148.566 201.022 146.024 202.586L141.137 197.699L129.408 209.428L134.295 214.315C132.927 216.856 131.754 219.397 130.972 222.134H124.13V238.554H130.972C131.754 241.291 132.732 243.832 134.295 246.374L129.408 251.261L141.137 262.989L146.024 258.102C148.566 259.471 151.107 260.644 153.844 261.426V268.267H170.264V261.426C173.001 260.644 175.542 259.666 178.083 258.102L182.97 262.989L194.699 251.261L189.812 246.374C191.18 243.832 192.353 241.291 193.135 238.554H199.977V238.359ZM175.542 243.637C172.023 247.156 167.136 249.11 162.249 249.11C157.167 249.11 152.475 247.156 148.956 243.637C145.438 240.118 143.483 235.231 143.483 230.344C143.483 225.262 145.438 220.57 148.956 217.051C152.475 213.533 157.362 211.578 162.249 211.578C167.332 211.578 172.023 213.533 175.542 217.051C179.061 220.57 181.015 225.457 181.015 230.344C181.015 235.231 179.061 240.118 175.542 243.637Z" fill="#8EB2D9"/>
<path d="M119.83 293.289L124.913 283.906L121.003 281.755C121.394 279.996 121.589 278.041 121.589 276.282L125.89 274.914L122.762 264.553L118.462 265.921C117.484 264.358 116.311 262.989 114.943 261.621L117.093 257.711L107.71 252.629L105.56 256.538C103.801 256.147 101.846 255.952 100.086 255.952L98.718 251.651L88.3576 254.779L89.726 259.08C88.1621 260.057 86.7937 261.23 85.4254 262.598L81.5157 260.448L76.4332 269.831L80.3428 271.981C79.9519 273.741 79.7564 275.696 79.7564 277.455L75.4558 278.823L78.5835 289.184L82.8841 287.815C83.8615 289.379 85.0344 290.748 86.4028 292.116L84.2525 296.026L93.6356 301.108L95.7858 297.198C97.5452 297.589 99.5 297.785 101.259 297.785L102.628 302.085L112.988 298.958L111.62 294.657C113.184 293.68 114.552 292.507 115.92 291.139L119.83 293.289ZM104.192 288.793C101.064 289.77 97.7406 289.379 94.8084 287.815C91.8762 286.251 89.7259 283.71 88.944 280.583C87.9666 277.455 88.3575 274.132 89.9214 271.199C91.4852 268.267 94.0265 266.117 97.1542 265.335C100.282 264.358 103.605 264.749 106.537 266.312C109.469 267.876 111.62 270.418 112.402 273.545C113.379 276.673 112.988 279.996 111.424 282.928C109.86 285.665 107.319 287.815 104.192 288.793Z" fill="white"/>
<path d="M120.221 321.047H3.90962C1.75933 321.047 0 322.806 0 324.956V391.616C0 393.766 1.75933 395.525 3.90962 395.525H120.221C122.371 395.525 124.13 393.766 124.13 391.616V324.956C124.13 322.806 122.371 321.047 120.221 321.047Z" fill="#324559"/>
<path d="M124.13 334.144V324.956C124.13 322.806 122.371 321.047 120.221 321.047H3.90962C1.75933 321.047 0 322.806 0 324.956V334.144H124.13Z" fill="#7ca1b0"/>
<path d="M35.6142 349.852V348.664L45.1715 343.797V345.696L37.8403 349.228L37.8996 349.11V349.406L37.8403 349.288L45.1715 352.82V354.719L35.6142 349.852ZM54.2558 339.285L49.3584 357.48H47.7556L52.653 339.285H54.2558ZM66.3935 349.852L56.8362 354.719V352.82L64.1674 349.288L64.1081 349.406V349.11L64.1674 349.228L56.8362 345.696V343.797L66.3935 348.664V349.852Z" fill="white"/>
</svg>